<svg xmlns="http://www.w3.org/2000/svg" xmlns:xlink="http://www.w3.org/1999/xlink" zoomAndPan="magnify" preserveAspectRatio="xMidYMid meet" version="1.0" viewBox="45.2 25.89 340.6 91.94"><defs><g/><clipPath id="343eabff19"><path d="M 352.867188 92.871094 L 385.679688 92.871094 L 385.679688 117.480469 L 352.867188 117.480469 Z M 352.867188 92.871094 " clip-rule="nonzero"/></clipPath></defs><g fill="#000000" fill-opacity="1"><g transform="translate(44.030086, 86.661785)"><g><path d="M 130.515625 2 C 130.597656 2 130.679688 2 130.765625 2 C 130.960938 2 131.160156 2.019531 131.359375 2.0625 C 131.554688 2.101562 131.738281 2.207031 131.90625 2.375 C 131.9375 2.425781 131.972656 2.488281 132.015625 2.5625 C 132.054688 2.632812 132.078125 2.71875 132.078125 2.8125 C 132.046875 2.851562 132.007812 2.910156 131.96875 2.984375 C 131.925781 3.054688 131.878906 3.113281 131.828125 3.15625 C 131.597656 3.207031 131.359375 3.21875 131.109375 3.1875 C 130.992188 3.1875 130.867188 3.1875 130.734375 3.1875 C 129.316406 3.09375 127.90625 2.988281 126.5 2.875 C 123.90625 2.6875 121.3125 2.507812 118.71875 2.34375 C 108.039062 1.664062 97.492188 1.296875 87.078125 1.234375 C 76.671875 1.179688 66.113281 1.328125 55.40625 1.671875 C 54.28125 1.691406 53.148438 1.757812 52.015625 1.875 C 50.953125 1.957031 49.882812 2.007812 48.8125 2.03125 C 47.78125 2.070312 46.96875 2.53125 46.375 3.40625 C 43.71875 6.925781 40.84375 10.257812 37.75 13.40625 C 35.570312 15.632812 33.300781 17.632812 30.9375 19.40625 C 28.570312 21.1875 26.085938 22.597656 23.484375 23.640625 C 20.878906 24.679688 18.160156 25.195312 15.328125 25.1875 C 12.492188 25.175781 9.539062 24.476562 6.46875 23.09375 C 5.039062 22.476562 3.773438 21.585938 2.671875 20.421875 C 0.890625 18.398438 0.691406 16.21875 2.078125 13.875 C 3.054688 12.363281 4.320312 11.113281 5.875 10.125 C 8.21875 8.570312 10.953125 7.257812 14.078125 6.1875 C 17.203125 5.113281 20.503906 4.238281 23.984375 3.5625 C 27.460938 2.894531 30.878906 2.359375 34.234375 1.953125 C 37.585938 1.554688 40.648438 1.265625 43.421875 1.078125 C 44.546875 0.984375 45.414062 0.488281 46.03125 -0.40625 C 48.3125 -3.707031 50.738281 -7.578125 53.3125 -12.015625 C 55.894531 -16.453125 58.378906 -21.117188 60.765625 -26.015625 C 63.148438 -30.921875 65.195312 -35.691406 66.90625 -40.328125 C 68.625 -44.960938 69.78125 -49.132812 70.375 -52.84375 C 70.539062 -53.976562 70.5 -55.109375 70.25 -56.234375 C 69.789062 -58.035156 68.664062 -59.066406 66.875 -59.328125 C 66.613281 -59.347656 66.367188 -59.359375 66.140625 -59.359375 C 65.609375 -59.359375 65.078125 -59.289062 64.546875 -59.15625 C 62.234375 -58.675781 59.367188 -57.617188 55.953125 -55.984375 C 52.546875 -54.359375 48.96875 -52.332031 45.21875 -49.90625 C 41.476562 -47.476562 37.894531 -44.816406 34.46875 -41.921875 C 31.039062 -39.035156 28.144531 -36.097656 25.78125 -33.109375 C 23.414062 -30.128906 21.910156 -27.242188 21.265625 -24.453125 C 20.753906 -22.054688 21.597656 -20.304688 23.796875 -19.203125 C 25.566406 -18.421875 27.453125 -18.078125 29.453125 -18.171875 C 31.460938 -18.273438 33.382812 -18.515625 35.21875 -18.890625 C 36.34375 -19.128906 37.46875 -19.25 38.59375 -19.25 C 39.070312 -19.25 39.535156 -19.222656 39.984375 -19.171875 C 40.097656 -19.171875 40.203125 -19.132812 40.296875 -19.0625 C 40.398438 -19 40.4375 -18.882812 40.40625 -18.71875 C 40.351562 -18.425781 40.195312 -18.269531 39.9375 -18.25 C 38.382812 -18.101562 36.820312 -17.90625 35.25 -17.65625 C 33.332031 -17.3125 31.410156 -17.082031 29.484375 -16.96875 C 27.554688 -16.863281 25.648438 -17.0625 23.765625 -17.5625 C 22.804688 -17.8125 21.914062 -18.207031 21.09375 -18.75 C 19.125 -20.070312 18.320312 -21.90625 18.6875 -24.25 C 19.25 -27.226562 20.769531 -30.320312 23.25 -33.53125 C 25.726562 -36.75 28.773438 -39.878906 32.390625 -42.921875 C 36.015625 -45.960938 39.832031 -48.75 43.84375 -51.28125 C 47.863281 -53.820312 51.691406 -55.914062 55.328125 -57.5625 C 58.960938 -59.207031 62.035156 -60.226562 64.546875 -60.625 C 65.160156 -60.738281 65.773438 -60.785156 66.390625 -60.765625 C 67.460938 -60.785156 68.507812 -60.644531 69.53125 -60.34375 C 71.382812 -59.75 72.554688 -58.492188 73.046875 -56.578125 C 73.460938 -54.515625 73.207031 -51.703125 72.28125 -48.140625 C 71.351562 -44.578125 69.984375 -40.613281 68.171875 -36.25 C 66.367188 -31.882812 64.363281 -27.492188 62.15625 -23.078125 C 59.945312 -18.671875 57.789062 -14.613281 55.6875 -10.90625 C 53.59375 -7.207031 51.78125 -4.234375 50.25 -1.984375 C 49.832031 -1.378906 49.425781 -0.769531 49.03125 -0.15625 C 48.945312 0.0078125 48.945312 0.160156 49.03125 0.296875 C 49.113281 0.441406 49.253906 0.515625 49.453125 0.515625 L 49.484375 0.515625 C 49.992188 0.515625 50.507812 0.503906 51.03125 0.484375 C 52.507812 0.429688 54 0.359375 55.5 0.265625 C 58.644531 0.128906 61.800781 0.015625 64.96875 -0.078125 C 86.851562 -0.710938 108.703125 -0.0195312 130.515625 2 Z M 41.375 5.6875 C 41.519531 5.507812 41.675781 5.320312 41.84375 5.125 C 42.125 4.789062 42.410156 4.425781 42.703125 4.03125 C 42.992188 3.632812 43.257812 3.164062 43.5 2.625 C 43.238281 2.625 43 2.625 42.78125 2.625 C 42.6875 2.625 42.597656 2.625 42.515625 2.625 C 42.410156 2.625 42.289062 2.625 42.15625 2.625 C 41.238281 2.75 40.320312 2.867188 39.40625 2.984375 C 38.207031 3.117188 37.019531 3.257812 35.84375 3.40625 C 33.101562 3.65625 29.929688 4.109375 26.328125 4.765625 C 22.722656 5.429688 19.1875 6.332031 15.71875 7.46875 C 12.257812 8.613281 9.414062 10.039062 7.1875 11.75 C 6.425781 12.351562 5.734375 13.035156 5.109375 13.796875 C 3.253906 16.140625 3.441406 18.296875 5.671875 20.265625 C 8.234375 22.335938 10.875 23.472656 13.59375 23.671875 C 16.3125 23.867188 19.015625 23.390625 21.703125 22.234375 C 24.398438 21.085938 26.972656 19.546875 29.421875 17.609375 C 31.867188 15.679688 34.113281 13.65625 36.15625 11.53125 C 38.207031 9.40625 39.945312 7.457031 41.375 5.6875 Z M 41.375 5.6875 "/></g></g></g><g fill="#000000" fill-opacity="1"><g transform="translate(107.217798, 86.661785)"><g><path d="M 10.953125 -7.375 C 10.210938 -6.644531 9.347656 -6.019531 8.359375 -5.5 C 7.367188 -4.976562 6.539062 -4.640625 5.875 -4.484375 C 5.207031 -4.328125 4.523438 -4.234375 3.828125 -4.203125 C 2.691406 -4.148438 1.648438 -4.304688 0.703125 -4.671875 C -0.835938 -5.296875 -1.375 -6.492188 -0.90625 -8.265625 C -0.457031 -9.785156 0.445312 -10.972656 1.8125 -11.828125 C 3.1875 -12.691406 4.609375 -13.109375 6.078125 -13.078125 C 6.078125 -13.078125 6.085938 -13.078125 6.109375 -13.078125 C 6.484375 -13.109375 6.835938 -13.082031 7.171875 -13 C 7.734375 -12.800781 8.085938 -12.46875 8.234375 -12 C 8.390625 -11.539062 8.289062 -11.03125 7.9375 -10.46875 C 7.113281 -9.226562 6 -8.535156 4.59375 -8.390625 C 3.65625 -8.304688 2.75 -8.351562 1.875 -8.53125 C 1.71875 -8.550781 1.570312 -8.503906 1.4375 -8.390625 C 1.3125 -8.273438 1.234375 -8.132812 1.203125 -7.96875 C 0.953125 -6.875 1.296875 -6.171875 2.234375 -5.859375 C 3.378906 -5.460938 4.578125 -5.460938 5.828125 -5.859375 C 7.253906 -6.304688 8.613281 -7.148438 9.90625 -8.390625 C 11.207031 -9.640625 11.957031 -10.222656 12.15625 -10.140625 C 12.351562 -10.054688 12.410156 -9.8125 12.328125 -9.40625 C 12.148438 -8.78125 11.691406 -8.101562 10.953125 -7.375 Z M 2.765625 -10.46875 C 2.691406 -10.375 2.640625 -10.273438 2.609375 -10.171875 C 2.578125 -10.066406 2.617188 -9.96875 2.734375 -9.875 C 3.179688 -9.613281 3.664062 -9.519531 4.1875 -9.59375 C 4.707031 -9.664062 5.148438 -9.863281 5.515625 -10.1875 C 5.890625 -10.519531 6.050781 -10.921875 6 -11.390625 C 5.957031 -11.554688 5.863281 -11.660156 5.71875 -11.703125 C 5.582031 -11.753906 5.441406 -11.765625 5.296875 -11.734375 C 4.347656 -11.566406 3.503906 -11.144531 2.765625 -10.46875 Z M 2.765625 -10.46875 "/></g></g></g><g fill="#000000" fill-opacity="1"><g transform="translate(118.399083, 86.661785)"><g><path d="M 15.21875 -9.59375 C 15.414062 -9.332031 15.15625 -8.863281 14.4375 -8.1875 C 13.726562 -7.507812 12.96875 -6.9375 12.15625 -6.46875 C 11.351562 -6.007812 10.421875 -5.550781 9.359375 -5.09375 C 8.648438 -4.78125 7.898438 -4.675781 7.109375 -4.78125 C 6.316406 -4.882812 5.921875 -5.363281 5.921875 -6.21875 C 5.921875 -7.082031 6.117188 -7.9375 6.515625 -8.78125 C 6.910156 -9.644531 6.992188 -10.085938 6.765625 -10.109375 C 6.546875 -10.140625 6.082031 -9.929688 5.375 -9.484375 C 3.539062 -8.285156 1.835938 -6.910156 0.265625 -5.359375 C -0.148438 -4.847656 -0.6875 -4.566406 -1.34375 -4.515625 C -1.675781 -4.515625 -1.9375 -4.617188 -2.125 -4.828125 C -2.3125 -5.046875 -2.332031 -5.273438 -2.1875 -5.515625 C -1.0625 -7.597656 0.078125 -9.660156 1.234375 -11.703125 C 1.484375 -12.117188 1.863281 -12.378906 2.375 -12.484375 C 2.59375 -12.523438 2.796875 -12.457031 2.984375 -12.28125 C 3.171875 -12.113281 3.265625 -11.921875 3.265625 -11.703125 C 3.242188 -11.492188 3.160156 -11.25 3.015625 -10.96875 C 2.953125 -10.800781 2.890625 -10.640625 2.828125 -10.484375 C 2.773438 -10.335938 2.757812 -10.210938 2.78125 -10.109375 C 2.800781 -10.003906 2.878906 -9.972656 3.015625 -10.015625 C 3.203125 -10.109375 3.394531 -10.210938 3.59375 -10.328125 C 4.082031 -10.617188 4.550781 -10.890625 5 -11.140625 C 5.394531 -11.367188 5.804688 -11.570312 6.234375 -11.75 C 6.671875 -11.9375 7.128906 -12.0625 7.609375 -12.125 C 8.378906 -12.175781 8.921875 -12 9.234375 -11.59375 C 9.554688 -11.195312 9.597656 -10.648438 9.359375 -9.953125 C 9.097656 -9.304688 8.828125 -8.671875 8.546875 -8.046875 C 8.203125 -7.460938 8.144531 -7.015625 8.375 -6.703125 C 8.601562 -6.398438 9.671875 -6.753906 11.578125 -7.765625 L 13.03125 -8.609375 C 14.382812 -9.472656 15.113281 -9.800781 15.21875 -9.59375 Z M 15.21875 -9.59375 "/></g></g></g><g fill="#000000" fill-opacity="1"><g transform="translate(132.481359, 86.661785)"><g><path d="M 15.21875 -9.59375 C 15.414062 -9.332031 15.15625 -8.863281 14.4375 -8.1875 C 13.726562 -7.507812 12.96875 -6.9375 12.15625 -6.46875 C 11.351562 -6.007812 10.421875 -5.550781 9.359375 -5.09375 C 8.648438 -4.78125 7.898438 -4.675781 7.109375 -4.78125 C 6.316406 -4.882812 5.921875 -5.363281 5.921875 -6.21875 C 5.921875 -7.082031 6.117188 -7.9375 6.515625 -8.78125 C 6.910156 -9.644531 6.992188 -10.085938 6.765625 -10.109375 C 6.546875 -10.140625 6.082031 -9.929688 5.375 -9.484375 C 3.539062 -8.285156 1.835938 -6.910156 0.265625 -5.359375 C -0.148438 -4.847656 -0.6875 -4.566406 -1.34375 -4.515625 C -1.675781 -4.515625 -1.9375 -4.617188 -2.125 -4.828125 C -2.3125 -5.046875 -2.332031 -5.273438 -2.1875 -5.515625 C -1.0625 -7.597656 0.078125 -9.660156 1.234375 -11.703125 C 1.484375 -12.117188 1.863281 -12.378906 2.375 -12.484375 C 2.59375 -12.523438 2.796875 -12.457031 2.984375 -12.28125 C 3.171875 -12.113281 3.265625 -11.921875 3.265625 -11.703125 C 3.242188 -11.492188 3.160156 -11.25 3.015625 -10.96875 C 2.953125 -10.800781 2.890625 -10.640625 2.828125 -10.484375 C 2.773438 -10.335938 2.757812 -10.210938 2.78125 -10.109375 C 2.800781 -10.003906 2.878906 -9.972656 3.015625 -10.015625 C 3.203125 -10.109375 3.394531 -10.210938 3.59375 -10.328125 C 4.082031 -10.617188 4.550781 -10.890625 5 -11.140625 C 5.394531 -11.367188 5.804688 -11.570312 6.234375 -11.75 C 6.671875 -11.9375 7.128906 -12.0625 7.609375 -12.125 C 8.378906 -12.175781 8.921875 -12 9.234375 -11.59375 C 9.554688 -11.195312 9.597656 -10.648438 9.359375 -9.953125 C 9.097656 -9.304688 8.828125 -8.671875 8.546875 -8.046875 C 8.203125 -7.460938 8.144531 -7.015625 8.375 -6.703125 C 8.601562 -6.398438 9.671875 -6.753906 11.578125 -7.765625 L 13.03125 -8.609375 C 14.382812 -9.472656 15.113281 -9.800781 15.21875 -9.59375 Z M 15.21875 -9.59375 "/></g></g></g><g fill="#000000" fill-opacity="1"><g transform="translate(146.563636, 86.661785)"><g><path d="M 7.640625 -8.09375 C 6.953125 -7.28125 6.140625 -6.535156 5.203125 -5.859375 C 4.265625 -5.179688 3.207031 -4.722656 2.03125 -4.484375 C 0.851562 -4.242188 -0.0546875 -4.328125 -0.703125 -4.734375 C -1.359375 -5.148438 -1.488281 -6.0625 -1.09375 -7.46875 C -0.582031 -8.925781 0.117188 -10.316406 1.015625 -11.640625 C 1.222656 -11.921875 1.519531 -12.117188 1.90625 -12.234375 C 2.1875 -12.296875 2.429688 -12.25 2.640625 -12.09375 C 2.847656 -11.9375 2.925781 -11.734375 2.875 -11.484375 C 2.6875 -11.023438 2.476562 -10.5625 2.25 -10.09375 C 2.019531 -9.632812 1.863281 -9.335938 1.78125 -9.203125 C 1.332031 -8.378906 1.019531 -7.519531 0.84375 -6.625 C 0.84375 -6.113281 1.523438 -6.082031 2.890625 -6.53125 C 4.265625 -6.976562 5.597656 -7.800781 6.890625 -9 C 8.191406 -10.195312 8.8125 -10.546875 8.75 -10.046875 C 8.695312 -9.554688 8.328125 -8.90625 7.640625 -8.09375 Z M 4.28125 -14.515625 C 4.21875 -14.472656 4.085938 -14.414062 3.890625 -14.34375 C 3.691406 -14.269531 3.476562 -14.21875 3.25 -14.1875 C 3.03125 -14.15625 2.851562 -14.191406 2.71875 -14.296875 C 2.59375 -14.398438 2.585938 -14.601562 2.703125 -14.90625 C 2.910156 -15.445312 3.125 -15.914062 3.34375 -16.3125 C 3.570312 -16.71875 3.863281 -17.164062 4.21875 -17.65625 C 4.457031 -17.875 4.707031 -17.988281 4.96875 -18 C 5.238281 -18.019531 5.460938 -17.953125 5.640625 -17.796875 C 5.828125 -17.640625 5.878906 -17.421875 5.796875 -17.140625 C 5.515625 -16.128906 5.007812 -15.253906 4.28125 -14.515625 Z M 4.28125 -14.515625 "/></g></g></g><g fill="#000000" fill-opacity="1"><g transform="translate(154.056249, 86.661785)"><g><path d="M 2.609375 -8.640625 C 2.109375 -7.378906 1.578125 -6.113281 1.015625 -4.84375 C 0.148438 -2.820312 -0.847656 -0.847656 -1.984375 1.078125 C -2.773438 2.421875 -3.738281 3.375 -4.875 3.9375 C -6.019531 4.5 -7.296875 4.769531 -8.703125 4.75 C -9.921875 4.71875 -10.9375 4.28125 -11.75 3.4375 C -11.851562 3.320312 -11.925781 3.191406 -11.96875 3.046875 C -12.019531 2.910156 -12 2.769531 -11.90625 2.625 C -11.800781 2.488281 -11.660156 2.410156 -11.484375 2.390625 C -11.316406 2.378906 -11.164062 2.398438 -11.03125 2.453125 C -10.832031 2.523438 -10.632812 2.617188 -10.4375 2.734375 C -10.289062 2.804688 -10.148438 2.875 -10.015625 2.9375 C -9.023438 3.363281 -8.070312 3.4375 -7.15625 3.15625 C -6.238281 2.875 -5.445312 2.238281 -4.78125 1.25 C -4.101562 0.257812 -3.507812 -0.757812 -3 -1.8125 C -2.96875 -1.851562 -2.941406 -1.890625 -2.921875 -1.921875 C -1.796875 -4.117188 -0.8125 -6.359375 0.03125 -8.640625 C 0.175781 -9.015625 0.203125 -9.273438 0.109375 -9.421875 C 0.015625 -9.578125 -0.21875 -9.679688 -0.59375 -9.734375 C -0.757812 -9.773438 -0.925781 -9.796875 -1.09375 -9.796875 C -1.238281 -9.828125 -1.378906 -9.84375 -1.515625 -9.84375 C -1.679688 -9.863281 -1.820312 -9.914062 -1.9375 -10 C -2.050781 -10.082031 -2.082031 -10.226562 -2.03125 -10.4375 C -2 -10.601562 -1.910156 -10.726562 -1.765625 -10.8125 C -1.628906 -10.894531 -1.476562 -10.945312 -1.3125 -10.96875 C -1.28125 -10.96875 -1.238281 -10.96875 -1.1875 -10.96875 C -0.769531 -11.0625 -0.347656 -11.117188 0.078125 -11.140625 C 0.472656 -11.140625 0.769531 -11.238281 0.96875 -11.4375 C 1.164062 -11.632812 1.335938 -11.914062 1.484375 -12.28125 C 2.273438 -14.476562 3.109375 -16.679688 3.984375 -18.890625 C 4.898438 -21.304688 5.992188 -23.664062 7.265625 -25.96875 C 7.796875 -27.019531 8.488281 -27.953125 9.34375 -28.765625 C 9.789062 -29.160156 10.269531 -29.46875 10.78125 -29.6875 C 11.289062 -29.914062 11.835938 -29.988281 12.421875 -29.90625 C 12.546875 -29.90625 12.65625 -29.867188 12.75 -29.796875 C 12.84375 -29.734375 12.914062 -29.65625 12.96875 -29.5625 C 13.0625 -29.375 13.039062 -29.226562 12.90625 -29.125 C 12.78125 -29.019531 12.644531 -28.941406 12.5 -28.890625 C 11.820312 -28.609375 11.28125 -28.21875 10.875 -27.71875 C 10.476562 -27.226562 10.117188 -26.691406 9.796875 -26.109375 C 8.523438 -23.734375 7.40625 -21.328125 6.4375 -18.890625 C 5.476562 -16.453125 4.578125 -13.984375 3.734375 -11.484375 C 4.296875 -11.160156 4.867188 -11 5.453125 -11 C 5.710938 -10.976562 5.984375 -10.941406 6.265625 -10.890625 C 6.316406 -10.867188 6.382812 -10.859375 6.46875 -10.859375 C 6.613281 -10.816406 6.753906 -10.769531 6.890625 -10.71875 C 6.941406 -10.695312 6.992188 -10.65625 7.046875 -10.59375 C 7.109375 -10.539062 7.128906 -10.488281 7.109375 -10.4375 C 7.109375 -10.34375 7.078125 -10.257812 7.015625 -10.1875 C 6.960938 -10.113281 6.90625 -10.066406 6.84375 -10.046875 C 6.175781 -9.835938 5.503906 -9.753906 4.828125 -9.796875 C 4.660156 -9.796875 4.472656 -9.796875 4.265625 -9.796875 C 3.441406 -9.828125 2.890625 -9.441406 2.609375 -8.640625 Z M 2.609375 -8.640625 "/></g></g></g><g fill="#000000" fill-opacity="1"><g transform="translate(161.491233, 86.661785)"><g><path d="M 10.953125 -7.375 C 10.210938 -6.644531 9.347656 -6.019531 8.359375 -5.5 C 7.367188 -4.976562 6.539062 -4.640625 5.875 -4.484375 C 5.207031 -4.328125 4.523438 -4.234375 3.828125 -4.203125 C 2.691406 -4.148438 1.648438 -4.304688 0.703125 -4.671875 C -0.835938 -5.296875 -1.375 -6.492188 -0.90625 -8.265625 C -0.457031 -9.785156 0.445312 -10.972656 1.8125 -11.828125 C 3.1875 -12.691406 4.609375 -13.109375 6.078125 -13.078125 C 6.078125 -13.078125 6.085938 -13.078125 6.109375 -13.078125 C 6.484375 -13.109375 6.835938 -13.082031 7.171875 -13 C 7.734375 -12.800781 8.085938 -12.46875 8.234375 -12 C 8.390625 -11.539062 8.289062 -11.03125 7.9375 -10.46875 C 7.113281 -9.226562 6 -8.535156 4.59375 -8.390625 C 3.65625 -8.304688 2.75 -8.351562 1.875 -8.53125 C 1.71875 -8.550781 1.570312 -8.503906 1.4375 -8.390625 C 1.3125 -8.273438 1.234375 -8.132812 1.203125 -7.96875 C 0.953125 -6.875 1.296875 -6.171875 2.234375 -5.859375 C 3.378906 -5.460938 4.578125 -5.460938 5.828125 -5.859375 C 7.253906 -6.304688 8.613281 -7.148438 9.90625 -8.390625 C 11.207031 -9.640625 11.957031 -10.222656 12.15625 -10.140625 C 12.351562 -10.054688 12.410156 -9.8125 12.328125 -9.40625 C 12.148438 -8.78125 11.691406 -8.101562 10.953125 -7.375 Z M 2.765625 -10.46875 C 2.691406 -10.375 2.640625 -10.273438 2.609375 -10.171875 C 2.578125 -10.066406 2.617188 -9.96875 2.734375 -9.875 C 3.179688 -9.613281 3.664062 -9.519531 4.1875 -9.59375 C 4.707031 -9.664062 5.148438 -9.863281 5.515625 -10.1875 C 5.890625 -10.519531 6.050781 -10.921875 6 -11.390625 C 5.957031 -11.554688 5.863281 -11.660156 5.71875 -11.703125 C 5.582031 -11.753906 5.441406 -11.765625 5.296875 -11.734375 C 4.347656 -11.566406 3.503906 -11.144531 2.765625 -10.46875 Z M 2.765625 -10.46875 "/></g></g></g><g fill="#000000" fill-opacity="1"><g transform="translate(172.672518, 86.661785)"><g><path d="M 9.21875 -11.796875 C 9.101562 -10.910156 8.6875 -10.332031 7.96875 -10.0625 C 7.25 -9.789062 7.015625 -10.140625 7.265625 -11.109375 C 7.515625 -12.085938 7.078125 -12.335938 5.953125 -11.859375 C 4.828125 -11.378906 3.898438 -10.773438 3.171875 -10.046875 C 2.046875 -8.890625 1.046875 -7.648438 0.171875 -6.328125 C 0.078125 -6.203125 0.0078125 -6.101562 -0.03125 -6.03125 C -0.289062 -5.65625 -0.550781 -5.300781 -0.8125 -4.96875 C -0.976562 -4.738281 -1.171875 -4.59375 -1.390625 -4.53125 C -1.617188 -4.476562 -1.847656 -4.472656 -2.078125 -4.515625 C -2.296875 -4.535156 -2.460938 -4.613281 -2.578125 -4.75 C -2.691406 -4.894531 -2.703125 -5.066406 -2.609375 -5.265625 C -2.472656 -5.609375 -2.304688 -5.960938 -2.109375 -6.328125 C -0.960938 -8.460938 0.207031 -10.601562 1.40625 -12.75 C 1.425781 -12.78125 1.4375 -12.804688 1.4375 -12.828125 C 1.601562 -13.160156 1.800781 -13.46875 2.03125 -13.75 C 2.289062 -14.03125 2.585938 -14.144531 2.921875 -14.09375 C 3.253906 -14.050781 3.476562 -13.851562 3.59375 -13.5 C 3.726562 -13.050781 3.847656 -12.796875 3.953125 -12.734375 C 4.054688 -12.679688 4.289062 -12.726562 4.65625 -12.875 C 5.414062 -13.15625 6.160156 -13.351562 6.890625 -13.46875 C 7.617188 -13.582031 8.21875 -13.550781 8.6875 -13.375 C 9.15625 -13.207031 9.332031 -12.679688 9.21875 -11.796875 Z M 9.21875 -11.796875 "/></g></g></g><g fill="#000000" fill-opacity="1"><g transform="translate(182.278432, 86.661785)"><g/></g></g><g fill="#000000" fill-opacity="1"><g transform="translate(196.802575, 86.661785)"><g><path d="M 84.3125 -46.359375 C 84.226562 -46.128906 84.140625 -45.898438 84.046875 -45.671875 C 83.148438 -43.335938 82.179688 -41.039062 81.140625 -38.78125 C 75.785156 -27.65625 70.035156 -16.894531 63.890625 -6.5 C 61.890625 -3.132812 59.847656 0.164062 57.765625 3.40625 C 55.679688 6.644531 53.582031 9.867188 51.46875 13.078125 C 50.96875 13.835938 50.460938 14.59375 49.953125 15.34375 C 49.921875 15.414062 49.894531 15.460938 49.875 15.484375 C 49.757812 15.710938 49.625 15.90625 49.46875 16.0625 C 49.3125 16.21875 49.109375 16.296875 48.859375 16.296875 C 48.742188 16.296875 48.617188 16.265625 48.484375 16.203125 C 48.359375 16.148438 48.257812 16.078125 48.1875 15.984375 C 48.113281 15.910156 48.066406 15.785156 48.046875 15.609375 C 48.023438 15.429688 48.035156 15.296875 48.078125 15.203125 C 48.429688 14.453125 48.816406 13.742188 49.234375 13.078125 C 50.179688 11.535156 51.132812 9.988281 52.09375 8.4375 C 53.90625 5.550781 55.679688 2.660156 57.421875 -0.234375 C 61.285156 -6.679688 64.976562 -13.265625 68.5 -19.984375 C 72.019531 -26.710938 75.460938 -33.507812 78.828125 -40.375 C 80.171875 -43.03125 81.273438 -45.867188 82.140625 -48.890625 C 82.328125 -49.410156 82.46875 -49.953125 82.5625 -50.515625 C 82.65625 -51.085938 82.703125 -51.671875 82.703125 -52.265625 C 82.609375 -53.566406 82.054688 -54.132812 81.046875 -53.96875 C 80.148438 -53.78125 79.304688 -53.5 78.515625 -53.125 C 76.628906 -52.207031 74.769531 -51.203125 72.9375 -50.109375 C 63.101562 -44.140625 54.144531 -36.726562 46.0625 -27.875 C 45.945312 -27.726562 45.820312 -27.585938 45.6875 -27.453125 C 42.894531 -24.421875 40.125 -21.359375 37.375 -18.265625 C 34.625 -15.179688 31.957031 -12.003906 29.375 -8.734375 C 28.832031 -8.054688 28.269531 -7.425781 27.6875 -6.84375 C 27.050781 -6.1875 26.300781 -5.929688 25.4375 -6.078125 C 25.0625 -6.117188 24.753906 -6.296875 24.515625 -6.609375 C 24.285156 -6.929688 24.195312 -7.300781 24.25 -7.71875 C 24.425781 -8.875 24.679688 -9.988281 25.015625 -11.0625 C 26.046875 -14.46875 27.144531 -17.832031 28.3125 -21.15625 C 28.476562 -21.664062 28.632812 -22.15625 28.78125 -22.625 C 29.082031 -23.875 29.515625 -25.019531 30.078125 -26.0625 C 30.078125 -26.09375 30.066406 -26.109375 30.046875 -26.109375 C 29.898438 -26.179688 29.753906 -26.238281 29.609375 -26.28125 C 29.472656 -26.332031 29.335938 -26.285156 29.203125 -26.140625 C 28.691406 -25.578125 28.195312 -24.988281 27.71875 -24.375 C 23.820312 -19.101562 19.96875 -13.78125 16.15625 -8.40625 C 12.34375 -3.039062 8.613281 2.410156 4.96875 7.953125 C 4.664062 8.492188 4.320312 8.929688 3.9375 9.265625 C 3.5625 9.609375 3.0625 9.722656 2.4375 9.609375 C 2.15625 9.523438 1.9375 9.347656 1.78125 9.078125 C 1.632812 8.816406 1.601562 8.554688 1.6875 8.296875 C 2.019531 7.546875 2.382812 6.828125 2.78125 6.140625 C 3.90625 4.203125 5.019531 2.257812 6.125 0.3125 C 8.34375 -3.539062 10.539062 -7.414062 12.71875 -11.3125 C 16.101562 -17.28125 19.117188 -23.5625 21.765625 -30.15625 C 22.804688 -32.695312 23.648438 -35.363281 24.296875 -38.15625 C 24.660156 -39.632812 24.816406 -41.179688 24.765625 -42.796875 C 24.597656 -45.390625 23.738281 -47.242188 22.1875 -48.359375 C 20.632812 -49.472656 18.597656 -50 16.078125 -49.9375 C 13.554688 -49.882812 10.757812 -49.367188 7.6875 -48.390625 C 4.613281 -47.421875 1.460938 -46.132812 -1.765625 -44.53125 C -4.992188 -42.925781 -8.101562 -41.15625 -11.09375 -39.21875 C -14.09375 -37.289062 -16.757812 -35.332031 -19.09375 -33.34375 C -21.4375 -31.363281 -23.265625 -29.503906 -24.578125 -27.765625 C -25.941406 -25.835938 -27.101562 -23.722656 -28.0625 -21.421875 C -28.550781 -20.316406 -28.832031 -19.117188 -28.90625 -17.828125 C -28.9375 -17.566406 -29.066406 -17.375 -29.296875 -17.25 C -29.523438 -17.125 -29.78125 -17.085938 -30.0625 -17.140625 C -30.507812 -17.273438 -30.789062 -17.625 -30.90625 -18.1875 C -30.988281 -18.9375 -30.929688 -19.617188 -30.734375 -20.234375 C -30.316406 -21.773438 -29.753906 -23.238281 -29.046875 -24.625 C -27.753906 -27.050781 -25.785156 -29.523438 -23.140625 -32.046875 C -20.503906 -34.566406 -17.429688 -36.984375 -13.921875 -39.296875 C -10.421875 -41.609375 -6.757812 -43.671875 -2.9375 -45.484375 C 0.875 -47.296875 4.601562 -48.703125 8.25 -49.703125 C 11.90625 -50.710938 15.195312 -51.164062 18.125 -51.0625 C 21.050781 -50.957031 23.359375 -50.148438 25.046875 -48.640625 C 26.742188 -47.140625 27.566406 -44.769531 27.515625 -41.53125 C 27.421875 -39.445312 27.09375 -37.460938 26.53125 -35.578125 C 25.707031 -32.804688 24.757812 -30.128906 23.6875 -27.546875 C 22.625 -24.972656 21.488281 -22.453125 20.28125 -19.984375 C 19.914062 -19.210938 19.835938 -18.835938 20.046875 -18.859375 C 20.253906 -18.878906 20.570312 -19.171875 21 -19.734375 C 22.519531 -21.753906 24.039062 -23.75 25.5625 -25.71875 C 26.601562 -27.039062 27.660156 -28.335938 28.734375 -29.609375 C 28.878906 -29.785156 29.019531 -29.957031 29.15625 -30.125 C 29.769531 -30.875 30.515625 -31.378906 31.390625 -31.640625 C 32.046875 -31.773438 32.597656 -31.625 33.046875 -31.1875 C 33.492188 -30.757812 33.644531 -30.109375 33.5 -29.234375 C 33.476562 -29.148438 33.453125 -29.0625 33.421875 -28.96875 C 33.191406 -27.84375 32.925781 -26.75 32.625 -25.6875 C 31.800781 -23.082031 30.953125 -20.5 30.078125 -17.9375 C 29.660156 -16.625 29.238281 -15.285156 28.8125 -13.921875 C 28.726562 -13.734375 28.601562 -13.382812 28.4375 -12.875 C 28.269531 -12.425781 28.109375 -11.984375 27.953125 -11.546875 C 27.796875 -11.109375 27.675781 -10.773438 27.59375 -10.546875 C 27.707031 -10.640625 28.75 -11.8125 30.71875 -14.0625 C 33.394531 -17.132812 36.5625 -20.734375 40.21875 -24.859375 C 43.882812 -28.984375 46.765625 -32.132812 48.859375 -34.3125 C 52.710938 -38.1875 56.773438 -41.710938 61.046875 -44.890625 C 65.316406 -48.078125 69.742188 -50.960938 74.328125 -53.546875 C 75.453125 -54.128906 76.609375 -54.660156 77.796875 -55.140625 C 78.054688 -55.222656 78.304688 -55.320312 78.546875 -55.4375 C 79.679688 -55.882812 80.878906 -56.050781 82.140625 -55.9375 C 84.578125 -55.707031 85.691406 -54.171875 85.484375 -51.328125 C 85.347656 -49.566406 84.957031 -47.910156 84.3125 -46.359375 Z M 29.953125 -26.21875 C 30.015625 -26.164062 30.054688 -26.128906 30.078125 -26.109375 C 30.078125 -26.109375 30.078125 -26.09375 30.078125 -26.0625 C 30.109375 -26.0625 30.125 -26.078125 30.125 -26.109375 C 30.070312 -26.128906 30.015625 -26.164062 29.953125 -26.21875 Z M 29.953125 -26.21875 "/></g></g></g><g fill="#000000" fill-opacity="1"><g transform="translate(269.211965, 86.661785)"><g><path d="M 13.9375 -9.78125 C 14.238281 -9.613281 14.257812 -9.195312 14 -8.53125 C 13.632812 -8.039062 13.238281 -7.582031 12.8125 -7.15625 C 12.382812 -6.738281 11.925781 -6.363281 11.4375 -6.03125 C 11.394531 -6.03125 11.375 -6.019531 11.375 -6 C 11.039062 -5.757812 10.6875 -5.554688 10.3125 -5.390625 C 7.25 -4.296875 5.6875 -4.945312 5.625 -7.34375 C 4.382812 -6.257812 3.550781 -5.597656 3.125 -5.359375 C 2.113281 -4.753906 1.019531 -4.484375 -0.15625 -4.546875 C -1.019531 -4.597656 -1.609375 -4.863281 -1.921875 -5.34375 C -2.242188 -5.832031 -2.21875 -6.484375 -1.84375 -7.296875 C -1.28125 -8.585938 -0.476562 -9.742188 0.5625 -10.765625 C 1.769531 -11.890625 3.117188 -12.789062 4.609375 -13.46875 C 5.398438 -13.863281 6.234375 -14.015625 7.109375 -13.921875 C 7.984375 -13.867188 8.507812 -13.378906 8.6875 -12.453125 C 8.757812 -12.171875 8.6875 -11.921875 8.46875 -11.703125 C 8.1875 -11.441406 7.863281 -11.382812 7.5 -11.53125 C 7.46875 -11.53125 7.425781 -11.535156 7.375 -11.546875 C 7.332031 -11.554688 7.300781 -11.578125 7.28125 -11.609375 C 6.90625 -12.117188 6.53125 -12.332031 6.15625 -12.25 C 5.78125 -12.164062 5.378906 -11.992188 4.953125 -11.734375 C 2.984375 -10.585938 1.519531 -8.984375 0.5625 -6.921875 C 0.507812 -6.828125 0.472656 -6.722656 0.453125 -6.609375 C 0.441406 -6.503906 0.476562 -6.421875 0.5625 -6.359375 C 0.789062 -6.285156 1.046875 -6.300781 1.328125 -6.40625 C 1.609375 -6.507812 1.890625 -6.664062 2.171875 -6.875 C 2.453125 -7.09375 2.6875 -7.273438 2.875 -7.421875 C 2.90625 -7.453125 2.921875 -7.46875 2.921875 -7.46875 C 3.859375 -8.25 4.773438 -9.050781 5.671875 -9.875 C 6.066406 -10.300781 6.554688 -10.535156 7.140625 -10.578125 C 7.992188 -10.578125 8.347656 -10.203125 8.203125 -9.453125 C 8.128906 -9.171875 8.046875 -8.890625 7.953125 -8.609375 C 7.617188 -7.390625 7.601562 -6.671875 7.90625 -6.453125 C 8.21875 -6.242188 8.691406 -6.242188 9.328125 -6.453125 C 9.960938 -6.671875 10.59375 -7.078125 11.21875 -7.671875 C 11.851562 -8.265625 12.390625 -8.804688 12.828125 -9.296875 C 13.265625 -9.796875 13.632812 -9.957031 13.9375 -9.78125 Z M 13.9375 -9.78125 "/></g></g></g><g fill="#000000" fill-opacity="1"><g transform="translate(281.949426, 86.661785)"><g><path d="M 13.84375 -10.015625 C 13.914062 -10.015625 13.992188 -9.992188 14.078125 -9.953125 C 14.160156 -9.921875 14.226562 -9.882812 14.28125 -9.84375 C 14.457031 -9.675781 14.472656 -9.472656 14.328125 -9.234375 C 14.148438 -9.046875 13.976562 -8.878906 13.8125 -8.734375 C 12.820312 -7.828125 11.726562 -7.066406 10.53125 -6.453125 C 8.632812 -5.492188 6.546875 -5 4.265625 -4.96875 C 3.421875 -4.945312 2.550781 -5.085938 1.65625 -5.390625 C 0.0078125 -6.035156 -0.65625 -7.222656 -0.34375 -8.953125 C 0.03125 -10.554688 0.929688 -11.882812 2.359375 -12.9375 C 3.796875 -13.988281 5.332031 -14.445312 6.96875 -14.3125 C 7.28125 -14.257812 7.585938 -14.1875 7.890625 -14.09375 C 8.171875 -13.976562 8.378906 -13.804688 8.515625 -13.578125 C 8.660156 -13.359375 8.675781 -13.179688 8.5625 -13.046875 C 8.257812 -12.710938 7.910156 -12.628906 7.515625 -12.796875 C 6.921875 -13.046875 6.378906 -13.113281 5.890625 -13 C 5.398438 -12.882812 4.90625 -12.617188 4.40625 -12.203125 C 3.914062 -11.828125 3.390625 -11.285156 2.828125 -10.578125 C 2.265625 -9.878906 1.90625 -9.171875 1.75 -8.453125 C 1.59375 -7.734375 1.910156 -7.148438 2.703125 -6.703125 C 3.597656 -6.304688 4.515625 -6.210938 5.453125 -6.421875 C 7.785156 -6.890625 9.953125 -7.769531 11.953125 -9.0625 C 12.128906 -9.15625 12.285156 -9.257812 12.421875 -9.375 C 12.640625 -9.539062 12.859375 -9.675781 13.078125 -9.78125 C 13.304688 -9.894531 13.5625 -9.972656 13.84375 -10.015625 Z M 13.84375 -10.015625 "/></g></g></g><g fill="#000000" fill-opacity="1"><g transform="translate(294.76371, 86.661785)"><g><path d="M 76.078125 7.625 C 76.097656 7.625 76.140625 7.625 76.203125 7.625 C 76.398438 7.65625 76.585938 7.695312 76.765625 7.75 C 76.953125 7.8125 77.117188 7.925781 77.265625 8.09375 C 77.316406 8.144531 77.359375 8.210938 77.390625 8.296875 C 77.421875 8.390625 77.414062 8.472656 77.375 8.546875 C 77.351562 8.640625 77.304688 8.71875 77.234375 8.78125 C 77.160156 8.851562 77.097656 8.890625 77.046875 8.890625 C 76.703125 8.941406 76.351562 8.941406 76 8.890625 C 67.40625 7.109375 57.878906 5.957031 47.421875 5.4375 C 36.960938 4.925781 27.316406 5.117188 18.484375 6.015625 C 18.085938 6.035156 17.703125 6.078125 17.328125 6.140625 C 16.992188 6.171875 16.675781 6.195312 16.375 6.21875 C 15.382812 6.363281 14.535156 6.800781 13.828125 7.53125 C 12.242188 9.257812 10.5 10.785156 8.59375 12.109375 C 7.09375 13.117188 5.4375 13.679688 3.625 13.796875 C 2.894531 13.847656 2.191406 13.734375 1.515625 13.453125 C 0.878906 13.171875 0.46875 12.742188 0.28125 12.171875 C 0.09375 11.609375 0.171875 11.007812 0.515625 10.375 C 1.078125 9.46875 2.003906 8.6875 3.296875 8.03125 C 4.597656 7.382812 5.976562 6.859375 7.4375 6.453125 C 8.90625 6.046875 10.144531 5.742188 11.15625 5.546875 C 12.519531 5.296875 13.625 4.640625 14.46875 3.578125 C 18.550781 -1.390625 22.476562 -7.015625 26.25 -13.296875 C 30.019531 -19.578125 33.492188 -26.039062 36.671875 -32.6875 C 39.859375 -39.34375 42.597656 -45.710938 44.890625 -51.796875 C 44.972656 -52.109375 45.101562 -52.382812 45.28125 -52.625 C 45.46875 -52.863281 45.742188 -53.03125 46.109375 -53.125 C 46.453125 -53.164062 46.75 -53.09375 47 -52.90625 C 47.25 -52.726562 47.347656 -52.472656 47.296875 -52.140625 C 47.179688 -51.347656 46.984375 -50.570312 46.703125 -49.8125 C 44.515625 -44.039062 41.914062 -38.023438 38.90625 -31.765625 C 35.90625 -25.503906 32.632812 -19.398438 29.09375 -13.453125 C 25.5625 -7.515625 21.921875 -2.140625 18.171875 2.671875 C 17.390625 3.660156 17.148438 4.234375 17.453125 4.390625 C 17.765625 4.546875 18.367188 4.535156 19.265625 4.359375 C 19.472656 4.335938 19.671875 4.3125 19.859375 4.28125 C 26.910156 3.488281 34.21875 3.25 41.78125 3.5625 C 49.351562 3.875 56.816406 4.535156 64.171875 5.546875 C 66.753906 5.921875 69.285156 6.34375 71.765625 6.8125 C 73.234375 7.101562 74.671875 7.375 76.078125 7.625 Z M 4.6875 11.96875 C 6.84375 11.09375 8.625 9.71875 10.03125 7.84375 C 7.707031 8.007812 5.644531 8.722656 3.84375 9.984375 C 3.28125 10.410156 2.945312 10.820312 2.84375 11.21875 C 2.75 11.613281 2.863281 11.898438 3.1875 12.078125 C 3.519531 12.265625 4.019531 12.226562 4.6875 11.96875 Z M 4.6875 11.96875 "/></g></g></g><g fill="#000000" fill-opacity="1"><g transform="translate(330.324799, 86.661785)"><g><path d="M 10.953125 -7.375 C 10.210938 -6.644531 9.347656 -6.019531 8.359375 -5.5 C 7.367188 -4.976562 6.539062 -4.640625 5.875 -4.484375 C 5.207031 -4.328125 4.523438 -4.234375 3.828125 -4.203125 C 2.691406 -4.148438 1.648438 -4.304688 0.703125 -4.671875 C -0.835938 -5.296875 -1.375 -6.492188 -0.90625 -8.265625 C -0.457031 -9.785156 0.445312 -10.972656 1.8125 -11.828125 C 3.1875 -12.691406 4.609375 -13.109375 6.078125 -13.078125 C 6.078125 -13.078125 6.085938 -13.078125 6.109375 -13.078125 C 6.484375 -13.109375 6.835938 -13.082031 7.171875 -13 C 7.734375 -12.800781 8.085938 -12.46875 8.234375 -12 C 8.390625 -11.539062 8.289062 -11.03125 7.9375 -10.46875 C 7.113281 -9.226562 6 -8.535156 4.59375 -8.390625 C 3.65625 -8.304688 2.75 -8.351562 1.875 -8.53125 C 1.71875 -8.550781 1.570312 -8.503906 1.4375 -8.390625 C 1.3125 -8.273438 1.234375 -8.132812 1.203125 -7.96875 C 0.953125 -6.875 1.296875 -6.171875 2.234375 -5.859375 C 3.378906 -5.460938 4.578125 -5.460938 5.828125 -5.859375 C 7.253906 -6.304688 8.613281 -7.148438 9.90625 -8.390625 C 11.207031 -9.640625 11.957031 -10.222656 12.15625 -10.140625 C 12.351562 -10.054688 12.410156 -9.8125 12.328125 -9.40625 C 12.148438 -8.78125 11.691406 -8.101562 10.953125 -7.375 Z M 2.765625 -10.46875 C 2.691406 -10.375 2.640625 -10.273438 2.609375 -10.171875 C 2.578125 -10.066406 2.617188 -9.96875 2.734375 -9.875 C 3.179688 -9.613281 3.664062 -9.519531 4.1875 -9.59375 C 4.707031 -9.664062 5.148438 -9.863281 5.515625 -10.1875 C 5.890625 -10.519531 6.050781 -10.921875 6 -11.390625 C 5.957031 -11.554688 5.863281 -11.660156 5.71875 -11.703125 C 5.582031 -11.753906 5.441406 -11.765625 5.296875 -11.734375 C 4.347656 -11.566406 3.503906 -11.144531 2.765625 -10.46875 Z M 2.765625 -10.46875 "/></g></g></g><g fill="#000000" fill-opacity="1"><g transform="translate(341.506071, 86.661785)"><g><path d="M 3.046875 -4.546875 L 3 -4.546875 C 1.144531 -4.578125 -0.078125 -4.992188 -0.671875 -5.796875 C -1.265625 -6.597656 -1.238281 -7.660156 -0.59375 -8.984375 C -0.0507812 -10.003906 0.625 -10.890625 1.4375 -11.640625 C 1.71875 -11.898438 2.003906 -12.101562 2.296875 -12.25 C 2.597656 -12.40625 2.929688 -12.484375 3.296875 -12.484375 C 3.515625 -12.523438 3.765625 -12.488281 4.046875 -12.375 C 4.140625 -12.34375 4.234375 -12.3125 4.328125 -12.28125 C 4.546875 -12.3125 4.753906 -12.378906 4.953125 -12.484375 C 5.003906 -12.523438 5.078125 -12.554688 5.171875 -12.578125 C 5.585938 -12.742188 6.035156 -12.816406 6.515625 -12.796875 C 6.703125 -12.796875 6.898438 -12.796875 7.109375 -12.796875 C 7.859375 -12.679688 8.425781 -12.363281 8.8125 -11.84375 C 9.195312 -11.320312 9.332031 -10.691406 9.21875 -9.953125 C 9.15625 -9.503906 9.015625 -9.082031 8.796875 -8.6875 C 7.328125 -6.039062 5.453125 -4.660156 3.171875 -4.546875 Z M 6.09375 -11.4375 C 5.082031 -11.46875 4.179688 -11.171875 3.390625 -10.546875 C 2.597656 -9.929688 2.007812 -9.21875 1.625 -8.40625 C 1.25 -7.601562 1.144531 -6.941406 1.3125 -6.421875 C 1.488281 -5.898438 2.023438 -5.757812 2.921875 -6 C 3.929688 -6.300781 4.820312 -6.875 5.59375 -7.71875 C 6.375 -8.5625 6.847656 -9.363281 7.015625 -10.125 C 7.191406 -10.894531 6.882812 -11.332031 6.09375 -11.4375 Z M 6.09375 -11.4375 "/></g></g></g><g fill="#000000" fill-opacity="1"><g transform="translate(351.707546, 86.661785)"><g><path d="M 17.0625 -10.109375 C 17.332031 -10.046875 17.472656 -9.945312 17.484375 -9.8125 C 17.492188 -9.6875 17.5 -9.625 17.5 -9.625 C 17.195312 -9.082031 16.84375 -8.585938 16.4375 -8.140625 C 15.53125 -7.128906 14.476562 -6.320312 13.28125 -5.71875 C 12.6875 -5.382812 12.019531 -5.207031 11.28125 -5.1875 C 9.5625 -5.164062 8.769531 -6 8.90625 -7.6875 C 8.976562 -8.039062 9.0625 -8.390625 9.15625 -8.734375 C 9.226562 -8.898438 9.273438 -9.066406 9.296875 -9.234375 C 9.460938 -9.847656 9.507812 -10.191406 9.4375 -10.265625 C 9.375 -10.335938 9.175781 -10.160156 8.84375 -9.734375 C 8.75 -9.660156 8.664062 -9.578125 8.59375 -9.484375 C 8.070312 -8.867188 7.546875 -8.269531 7.015625 -7.6875 C 6.023438 -6.5625 4.894531 -5.613281 3.625 -4.84375 C 2.875 -4.394531 2.078125 -4.15625 1.234375 -4.125 C -0.148438 -4.0625 -0.925781 -4.695312 -1.09375 -6.03125 C -1.15625 -6.570312 -1.128906 -7.101562 -1.015625 -7.625 C -0.453125 -9.800781 0.671875 -11.457031 2.359375 -12.59375 C 4.054688 -13.738281 5.992188 -14.144531 8.171875 -13.8125 C 8.785156 -13.632812 9.234375 -13.800781 9.515625 -14.3125 C 9.628906 -14.5 9.742188 -14.695312 9.859375 -14.90625 C 10.441406 -15.914062 11.015625 -16.925781 11.578125 -17.9375 C 12.640625 -19.882812 13.710938 -21.847656 14.796875 -23.828125 C 15.660156 -25.367188 16.53125 -26.929688 17.40625 -28.515625 C 17.664062 -28.992188 17.945312 -29.457031 18.25 -29.90625 C 18.394531 -30.125 18.570312 -30.253906 18.78125 -30.296875 C 18.988281 -30.347656 19.207031 -30.375 19.4375 -30.375 C 19.488281 -30.375 19.546875 -30.375 19.609375 -30.375 C 19.867188 -30.375 20.070312 -30.304688 20.21875 -30.171875 C 20.375 -30.046875 20.410156 -29.875 20.328125 -29.65625 C 20.160156 -29.125 19.960938 -28.613281 19.734375 -28.125 C 18.554688 -25.769531 17.441406 -23.382812 16.390625 -20.96875 C 15.347656 -18.550781 14.320312 -16.117188 13.3125 -13.671875 C 12.976562 -12.828125 12.640625 -11.984375 12.296875 -11.140625 C 11.867188 -10.148438 11.515625 -9.140625 11.234375 -8.109375 C 11.160156 -7.878906 11.125 -7.648438 11.125 -7.421875 C 11.125 -7.203125 11.234375 -7.007812 11.453125 -6.84375 C 11.585938 -6.75 11.734375 -6.726562 11.890625 -6.78125 C 12.046875 -6.84375 12.210938 -6.914062 12.390625 -7 C 12.410156 -7.03125 12.445312 -7.0625 12.5 -7.09375 C 13.71875 -7.789062 14.832031 -8.632812 15.84375 -9.625 C 16.007812 -9.789062 16.1875 -9.929688 16.375 -10.046875 C 16.5625 -10.160156 16.789062 -10.179688 17.0625 -10.109375 Z M 7.5625 -11.359375 C 7.707031 -11.585938 7.75 -11.804688 7.6875 -12.015625 C 7.632812 -12.222656 7.492188 -12.378906 7.265625 -12.484375 C 6.785156 -12.742188 6.28125 -12.773438 5.75 -12.578125 C 4.425781 -12.179688 3.316406 -11.425781 2.421875 -10.3125 C 1.535156 -9.195312 1.054688 -7.96875 0.984375 -6.625 C 1.003906 -6.5625 1.015625 -6.519531 1.015625 -6.5 C 1.015625 -6.382812 1.015625 -6.265625 1.015625 -6.140625 C 1.128906 -5.523438 1.507812 -5.40625 2.15625 -5.78125 C 2.800781 -6.164062 3.523438 -6.78125 4.328125 -7.625 C 5.128906 -8.46875 5.847656 -9.269531 6.484375 -10.03125 C 7.117188 -10.800781 7.476562 -11.242188 7.5625 -11.359375 Z M 7.5625 -11.359375 "/></g></g></g><g clip-path="url(#343eabff19)"><path fill="#ad9551" d="M 385.542969 114.660156 L 384.066406 113.988281 L 384.074219 111.738281 L 382.402344 111.113281 L 382.226562 108.960938 L 381.121094 108.589844 L 380.105469 106.945312 L 381.183594 106.269531 L 380.625 105.355469 L 380.066406 105.453125 L 380.066406 105.445312 C 381.855469 103.503906 382.34375 100.792969 381.074219 98.726562 C 379.988281 96.96875 377.910156 96.140625 375.75 96.386719 C 375.742188 96.371094 375.742188 96.359375 375.738281 96.34375 C 374.875 94.238281 372.847656 92.871094 370.570312 92.871094 C 367.503906 92.871094 365.003906 95.371094 365.003906 98.4375 C 365.003906 99.050781 365.101562 99.648438 365.292969 100.222656 L 355.046875 103.117188 L 356.902344 104.300781 L 352.890625 110.597656 L 364.242188 117.828125 L 368.253906 111.527344 L 370.183594 112.757812 L 368.710938 103.675781 C 369.003906 103.78125 369.300781 103.859375 369.609375 103.914062 L 369.675781 103.925781 C 369.789062 104.433594 369.984375 104.925781 370.269531 105.386719 C 371.53125 107.441406 374.152344 108.222656 376.671875 107.519531 L 376.386719 107.960938 L 376.953125 108.875 L 377.769531 108.375 L 383.101562 117.019531 L 384.960938 117.125 L 385.796875 115.703125 Z M 364.640625 112.585938 C 362.933594 113.671875 359.859375 113.289062 359.175781 113.183594 C 359.089844 113.171875 359.011719 113.117188 358.96875 113.039062 C 358.238281 111.675781 357.976562 110.089844 357.882812 109.269531 C 357.824219 108.734375 357.863281 108.195312 358.015625 107.691406 C 358.554688 105.867188 360.0625 105.523438 360.0625 105.523438 C 362.378906 104.933594 363.261719 107.597656 363.261719 107.597656 C 365.425781 107.855469 365.933594 109.289062 365.933594 109.289062 C 366.792969 111.28125 364.640625 112.585938 364.640625 112.585938 Z M 365.898438 103.03125 C 365.320312 102.664062 365.15625 101.898438 365.519531 101.320312 C 365.570312 101.242188 365.628906 101.167969 365.695312 101.109375 C 365.75 101.203125 365.792969 101.292969 365.847656 101.386719 C 366.097656 101.792969 366.878906 102.648438 367.261719 103.019531 C 366.859375 103.28125 366.328125 103.300781 365.898438 103.03125 Z M 366.992188 100.972656 C 366.953125 100.914062 366.914062 100.847656 366.875 100.789062 C 367 100.820312 367.117188 100.867188 367.234375 100.9375 C 367.578125 101.15625 367.769531 101.511719 367.800781 101.886719 C 367.542969 101.617188 367.089844 101.109375 366.992188 100.972656 Z M 369.566406 102.703125 C 369.230469 102.625 368.90625 102.503906 368.597656 102.351562 L 368.492188 102.300781 L 368.03125 99.453125 L 366.4375 99.898438 C 366.4375 99.890625 366.4375 99.890625 366.433594 99.886719 C 366.269531 99.417969 366.1875 98.929688 366.1875 98.4375 C 366.1875 96.023438 368.15625 94.054688 370.570312 94.054688 C 372.289062 94.054688 373.855469 95.070312 374.566406 96.636719 C 373.96875 96.8125 373.375 97.070312 372.808594 97.425781 C 370.78125 98.667969 369.609375 100.714844 369.566406 102.703125 Z M 373.464844 101.722656 C 373.238281 100.972656 373.527344 100.136719 374.21875 99.707031 C 374.40625 99.589844 374.613281 99.515625 374.820312 99.476562 C 374.613281 100.351562 374.144531 101.128906 373.464844 101.722656 Z M 376.066406 102.707031 C 375.46875 103.078125 374.730469 103.039062 374.175781 102.675781 C 375.085938 101.898438 375.730469 100.839844 375.992188 99.683594 C 376.25 99.828125 376.472656 100.023438 376.636719 100.285156 C 377.152344 101.117188 376.894531 102.195312 376.066406 102.707031 Z M 384.710938 116.988281 C 384.613281 117.046875 384.488281 117.035156 384.4375 116.949219 L 378.238281 106.886719 C 378.183594 106.808594 378.222656 106.691406 378.328125 106.625 C 378.429688 106.566406 378.554688 106.578125 378.605469 106.664062 L 384.804688 116.722656 C 384.855469 116.808594 384.816406 116.921875 384.710938 116.988281 Z M 384.710938 116.988281 " fill-opacity="1" fill-rule="nonzero"/></g></svg>