<svg xmlns="http://www.w3.org/2000/svg" xmlns:xlink="http://www.w3.org/1999/xlink" zoomAndPan="magnify" preserveAspectRatio="xMidYMid meet" version="1.0" viewBox="55.75 285.15 739.9 199.76"><defs><clipPath id="7c2bda245e"><path d="M 724.105469 430.691406 L 795.386719 430.691406 L 795.386719 484.152344 L 724.105469 484.152344 Z M 724.105469 430.691406 " clip-rule="nonzero"/></clipPath></defs><path fill="#ffffff" d="M 336.808594 421.554688 C 336.960938 421.554688 337.148438 421.554688 337.347656 421.554688 C 337.769531 421.554688 338.203125 421.59375 338.632812 421.6875 C 339.054688 421.773438 339.449219 422 339.8125 422.363281 C 339.898438 422.472656 339.980469 422.609375 340.050781 422.769531 C 340.132812 422.917969 340.183594 423.105469 340.183594 423.308594 C 340.132812 423.417969 340.058594 423.542969 339.949219 423.679688 C 339.855469 423.832031 339.753906 423.957031 339.644531 424.050781 C 339.148438 424.160156 338.632812 424.183594 338.09375 424.117188 C 337.839844 424.117188 337.570312 424.117188 337.28125 424.117188 C 334.195312 423.933594 331.121094 423.722656 328.066406 423.476562 C 322.414062 423.046875 316.796875 422.648438 311.191406 422.296875 C 287.972656 420.808594 265.039062 420 242.410156 419.867188 C 219.796875 419.746094 196.855469 420.078125 173.59375 420.84375 C 171.140625 420.886719 168.683594 421.03125 166.238281 421.28125 C 163.941406 421.460938 161.621094 421.570312 159.285156 421.621094 C 157.03125 421.703125 155.269531 422.699219 153.984375 424.589844 C 148.222656 432.234375 141.972656 439.484375 135.222656 446.324219 C 130.496094 451.183594 125.566406 455.539062 120.4375 459.386719 C 115.308594 463.234375 109.910156 466.289062 104.238281 468.566406 C 98.566406 470.835938 92.660156 471.949219 86.519531 471.90625 C 80.378906 471.882812 73.964844 470.371094 67.28125 467.386719 C 64.152344 466.035156 61.394531 464.09375 59.011719 461.582031 C 55.140625 457.167969 54.710938 452.417969 57.730469 447.339844 C 59.867188 444.046875 62.609375 441.339844 65.964844 439.203125 C 71.070312 435.828125 77.011719 432.96875 83.785156 430.632812 C 90.578125 428.285156 97.757812 426.386719 105.316406 424.929688 C 112.878906 423.460938 120.304688 422.304688 127.59375 421.453125 C 134.882812 420.589844 141.53125 419.949219 147.539062 419.527344 C 149.988281 419.34375 151.875 418.277344 153.210938 416.320312 C 158.179688 409.148438 163.46875 400.746094 169.070312 391.109375 C 174.675781 381.457031 180.058594 371.316406 185.238281 360.667969 C 190.410156 350.027344 194.867188 339.667969 198.601562 329.585938 C 202.332031 319.511719 204.832031 310.441406 206.097656 302.382812 C 206.476562 299.933594 206.398438 297.480469 205.859375 295.023438 C 204.863281 291.09375 202.417969 288.847656 198.503906 288.308594 C 197.960938 288.242188 197.429688 288.207031 196.914062 288.207031 C 195.742188 288.207031 194.59375 288.367188 193.472656 288.679688 C 188.425781 289.71875 182.210938 292.011719 174.808594 295.5625 C 167.402344 299.097656 159.628906 303.511719 151.488281 308.792969 C 143.335938 314.058594 135.542969 319.832031 128.097656 326.109375 C 120.675781 332.386719 114.378906 338.765625 109.234375 345.246094 C 104.078125 351.722656 100.804688 358 99.410156 364.078125 C 98.308594 369.273438 100.136719 373.070312 104.914062 375.449219 C 108.761719 377.164062 112.851562 377.914062 117.199219 377.710938 C 121.558594 377.492188 125.738281 376.96875 129.71875 376.160156 C 132.167969 375.644531 134.621094 375.382812 137.078125 375.382812 C 138.105469 375.382812 139.109375 375.441406 140.082031 375.550781 C 140.324219 375.550781 140.5625 375.636719 140.789062 375.789062 C 141.007812 375.921875 141.078125 376.175781 140.992188 376.53125 C 140.875 377.164062 140.535156 377.5 139.980469 377.542969 C 136.621094 377.863281 133.238281 378.285156 129.820312 378.824219 C 125.636719 379.59375 121.449219 380.097656 117.265625 380.34375 C 113.082031 380.570312 108.9375 380.140625 104.847656 379.0625 C 102.753906 378.503906 100.8125 377.636719 99.039062 376.464844 C 94.761719 373.585938 93.015625 369.601562 93.808594 364.515625 C 95.042969 358.035156 98.347656 351.3125 103.730469 344.332031 C 109.105469 337.339844 115.722656 330.546875 123.578125 323.949219 C 131.449219 317.332031 139.75 311.273438 148.484375 305.757812 C 157.207031 300.246094 165.527344 295.699219 173.425781 292.121094 C 181.324219 288.542969 188.003906 286.332031 193.472656 285.472656 C 194.796875 285.203125 196.121094 285.101562 197.457031 285.167969 C 199.792969 285.101562 202.0625 285.40625 204.273438 286.082031 C 208.296875 287.363281 210.835938 290.097656 211.902344 294.28125 C 212.820312 298.761719 212.273438 304.871094 210.246094 312.609375 C 208.238281 320.328125 205.269531 328.933594 201.335938 338.425781 C 197.421875 347.925781 193.050781 357.460938 188.242188 367.046875 C 183.449219 376.632812 178.765625 385.457031 174.203125 393.507812 C 169.652344 401.539062 165.730469 408.011719 162.421875 412.914062 C 161.496094 414.222656 160.601562 415.535156 159.722656 416.863281 C 159.5625 417.214844 159.570312 417.546875 159.757812 417.839844 C 159.933594 418.152344 160.238281 418.3125 160.667969 418.3125 L 160.734375 418.3125 C 161.859375 418.3125 162.972656 418.289062 164.078125 418.246094 C 167.292969 418.128906 170.53125 417.976562 173.796875 417.773438 C 180.632812 417.476562 187.5 417.234375 194.382812 417.03125 C 241.945312 415.636719 289.425781 417.148438 336.808594 421.554688 Z M 143.117188 429.550781 C 143.429688 429.164062 143.769531 428.757812 144.128906 428.335938 C 144.738281 427.609375 145.355469 426.816406 145.988281 425.941406 C 146.636719 425.078125 147.210938 424.066406 147.707031 422.902344 C 147.144531 422.902344 146.628906 422.902344 146.15625 422.902344 C 145.96875 422.902344 145.785156 422.902344 145.582031 422.902344 C 145.355469 422.902344 145.09375 422.902344 144.804688 422.902344 C 142.824219 423.171875 140.832031 423.425781 138.832031 423.679688 C 136.242188 423.964844 133.667969 424.269531 131.101562 424.589844 C 125.136719 425.148438 118.246094 426.144531 110.414062 427.558594 C 102.585938 428.996094 94.898438 430.953125 87.363281 433.433594 C 79.84375 435.90625 73.667969 439.011719 68.835938 442.746094 C 67.1875 444.046875 65.679688 445.523438 64.3125 447.167969 C 60.277344 452.25 60.683594 456.941406 65.527344 461.242188 C 71.078125 465.738281 76.816406 468.203125 82.738281 468.632812 C 88.652344 469.082031 94.527344 468.042969 100.355469 465.527344 C 106.203125 463.03125 111.796875 459.671875 117.128906 455.472656 C 122.464844 451.261719 127.339844 446.847656 131.777344 442.242188 C 136.234375 437.625 140.011719 433.398438 143.117188 429.550781 Z M 143.117188 429.550781 " fill-opacity="1" fill-rule="nonzero"/><path fill="#ffffff" d="M 214.265625 401.203125 C 212.648438 402.78125 210.765625 404.128906 208.632812 405.25 C 206.488281 406.382812 204.691406 407.125 203.230469 407.480469 C 201.789062 407.816406 200.304688 408.011719 198.777344 408.054688 C 196.320312 408.171875 194.066406 407.832031 192.027344 407.039062 C 188.652344 405.691406 187.488281 403.089844 188.515625 399.246094 C 189.488281 395.9375 191.453125 393.355469 194.421875 391.480469 C 197.410156 389.617188 200.496094 388.714844 203.667969 388.78125 C 203.667969 388.78125 203.6875 388.78125 203.738281 388.78125 C 204.546875 388.714844 205.308594 388.773438 206.03125 388.949219 C 207.265625 389.378906 208.039062 390.097656 208.359375 391.109375 C 208.699219 392.121094 208.480469 393.238281 207.71875 394.453125 C 205.941406 397.152344 203.519531 398.660156 200.464844 398.972656 C 198.414062 399.160156 196.449219 399.058594 194.558594 398.671875 C 194.195312 398.601562 193.867188 398.703125 193.578125 398.972656 C 193.308594 399.226562 193.148438 399.53125 193.105469 399.886719 C 192.539062 402.273438 193.273438 403.800781 195.300781 404.476562 C 197.8125 405.335938 200.429688 405.335938 203.128906 404.476562 C 206.234375 403.488281 209.1875 401.65625 212.007812 398.972656 C 214.816406 396.273438 216.4375 395.015625 216.867188 395.195312 C 217.289062 395.378906 217.421875 395.894531 217.269531 396.746094 C 216.882812 398.121094 215.886719 399.605469 214.265625 401.203125 Z M 196.480469 394.453125 C 196.320312 394.652344 196.195312 394.882812 196.109375 395.125 C 196.042969 395.355469 196.144531 395.558594 196.414062 395.734375 C 197.375 396.300781 198.421875 396.503906 199.550781 396.339844 C 200.699219 396.191406 201.660156 395.757812 202.453125 395.058594 C 203.265625 394.34375 203.609375 393.472656 203.5 392.460938 C 203.410156 392.082031 203.207031 391.84375 202.894531 391.75 C 202.597656 391.667969 202.292969 391.640625 201.980469 391.683594 C 199.933594 392.046875 198.101562 392.964844 196.480469 394.453125 Z M 196.480469 394.453125 " fill-opacity="1" fill-rule="nonzero"/><path fill="#ffffff" d="M 247.839844 396.375 C 248.261719 396.941406 247.703125 397.960938 246.152344 399.445312 C 244.597656 400.914062 242.945312 402.148438 241.191406 403.160156 C 239.433594 404.15625 237.394531 405.140625 235.082031 406.128906 C 233.546875 406.804688 231.917969 407.03125 230.1875 406.804688 C 228.472656 406.585938 227.621094 405.539062 227.621094 403.664062 C 227.621094 401.800781 228.042969 399.953125 228.90625 398.128906 C 229.78125 396.242188 229.96875 395.277344 229.476562 395.226562 C 228.980469 395.160156 227.96875 395.617188 226.441406 396.578125 C 222.457031 399.195312 218.753906 402.179688 215.335938 405.554688 C 214.441406 406.660156 213.269531 407.269531 211.828125 407.378906 C 211.109375 407.378906 210.542969 407.160156 210.140625 406.703125 C 209.734375 406.253906 209.691406 405.757812 210.003906 405.21875 C 212.460938 400.679688 214.933594 396.199219 217.429688 391.785156 C 217.988281 390.867188 218.820312 390.292969 219.925781 390.0625 C 220.398438 389.980469 220.839844 390.125 221.242188 390.503906 C 221.648438 390.890625 221.851562 391.3125 221.851562 391.785156 C 221.800781 392.242188 221.621094 392.765625 221.3125 393.371094 C 221.175781 393.734375 221.039062 394.082031 220.90625 394.417969 C 220.789062 394.753906 220.753906 395.042969 220.804688 395.261719 C 220.847656 395.464844 221.015625 395.53125 221.3125 395.464844 C 221.734375 395.246094 222.15625 395.007812 222.558594 394.753906 C 223.613281 394.132812 224.636719 393.539062 225.628906 393 C 226.484375 392.484375 227.386719 392.039062 228.332031 391.652344 C 229.277344 391.269531 230.261719 391.007812 231.300781 390.875 C 232.964844 390.765625 234.144531 391.136719 234.84375 391.988281 C 235.535156 392.847656 235.621094 394.039062 235.082031 395.566406 C 234.539062 396.964844 233.949219 398.351562 233.324219 399.714844 C 232.582031 401 232.457031 401.976562 232.953125 402.652344 C 233.46875 403.3125 235.796875 402.535156 239.941406 400.324219 L 243.078125 398.5 C 246.023438 396.613281 247.609375 395.902344 247.839844 396.375 Z M 247.839844 396.375 " fill-opacity="1" fill-rule="nonzero"/><path fill="#ffffff" d="M 278.429688 396.375 C 278.851562 396.941406 278.292969 397.960938 276.742188 399.445312 C 275.191406 400.914062 273.535156 402.148438 271.78125 403.160156 C 270.027344 404.15625 267.984375 405.140625 265.671875 406.128906 C 264.136719 406.804688 262.507812 407.03125 260.777344 406.804688 C 259.066406 406.585938 258.214844 405.539062 258.214844 403.664062 C 258.214844 401.800781 258.636719 399.953125 259.496094 398.128906 C 260.375 396.242188 260.558594 395.277344 260.070312 395.226562 C 259.570312 395.160156 258.558594 395.617188 257.03125 396.578125 C 253.050781 399.195312 249.347656 402.179688 245.929688 405.554688 C 245.035156 406.660156 243.863281 407.269531 242.417969 407.378906 C 241.703125 407.378906 241.136719 407.160156 240.730469 406.703125 C 240.324219 406.253906 240.285156 405.757812 240.597656 405.21875 C 243.050781 400.679688 245.523438 396.199219 248.019531 391.785156 C 248.578125 390.867188 249.414062 390.292969 250.519531 390.0625 C 250.992188 389.980469 251.429688 390.125 251.835938 390.503906 C 252.238281 390.890625 252.441406 391.3125 252.441406 391.785156 C 252.390625 392.242188 252.214844 392.765625 251.902344 393.371094 C 251.765625 393.734375 251.632812 394.082031 251.496094 394.417969 C 251.378906 394.753906 251.34375 395.042969 251.394531 395.261719 C 251.4375 395.464844 251.605469 395.53125 251.902344 395.464844 C 252.324219 395.246094 252.746094 395.007812 253.152344 394.753906 C 254.207031 394.132812 255.226562 393.539062 256.222656 393 C 257.074219 392.484375 257.976562 392.039062 258.921875 391.652344 C 259.867188 391.269531 260.855469 391.007812 261.890625 390.875 C 263.554688 390.765625 264.734375 391.136719 265.4375 391.988281 C 266.128906 392.847656 266.210938 394.039062 265.671875 395.566406 C 265.132812 396.964844 264.542969 398.351562 263.917969 399.714844 C 263.175781 401 263.046875 401.976562 263.546875 402.652344 C 264.0625 403.3125 266.390625 402.535156 270.53125 400.324219 L 273.671875 398.5 C 276.617188 396.613281 278.203125 395.902344 278.429688 396.375 Z M 278.429688 396.375 " fill-opacity="1" fill-rule="nonzero"/><path fill="#ffffff" d="M 292.515625 399.617188 C 291.03125 401.371094 289.277344 402.992188 287.253906 404.476562 C 285.226562 405.945312 282.933594 406.929688 280.367188 407.445312 C 277.800781 407.96875 275.8125 407.78125 274.394531 406.90625 C 272.976562 406.011719 272.707031 404.027344 273.582031 400.964844 C 274.6875 397.792969 276.214844 394.773438 278.171875 391.886719 C 278.59375 391.277344 279.226562 390.855469 280.0625 390.605469 C 280.6875 390.46875 281.226562 390.585938 281.683594 390.941406 C 282.132812 391.277344 282.308594 391.710938 282.222656 392.222656 C 281.792969 393.238281 281.320312 394.25 280.804688 395.261719 C 280.308594 396.257812 279.980469 396.90625 279.828125 397.21875 C 278.855469 399 278.171875 400.855469 277.769531 402.789062 C 277.769531 403.917969 279.253906 403.996094 282.222656 403.023438 C 285.210938 402.035156 288.113281 400.25 290.929688 397.65625 C 293.742188 395.050781 295.082031 394.28125 294.949219 395.363281 C 294.828125 396.425781 294.019531 397.84375 292.515625 399.617188 Z M 285.261719 385.644531 C 285.125 385.761719 284.832031 385.894531 284.382812 386.046875 C 283.953125 386.207031 283.488281 386.316406 283 386.386719 C 282.527344 386.453125 282.140625 386.378906 281.851562 386.148438 C 281.582031 385.929688 281.566406 385.472656 281.820312 384.800781 C 282.265625 383.636719 282.730469 382.605469 283.203125 381.726562 C 283.691406 380.851562 284.332031 379.886719 285.125 378.824219 C 285.617188 378.351562 286.15625 378.109375 286.746094 378.082031 C 287.328125 378.039062 287.808594 378.199219 288.199219 378.554688 C 288.601562 378.894531 288.71875 379.367188 288.570312 379.972656 C 287.9375 382.160156 286.832031 384.046875 285.261719 385.644531 Z M 285.261719 385.644531 " fill-opacity="1" fill-rule="nonzero"/><path fill="#ffffff" d="M 297.894531 398.402344 C 296.8125 401.167969 295.664062 403.925781 294.449219 406.667969 C 292.535156 411.082031 290.367188 415.367188 287.9375 419.527344 C 286.207031 422.449219 284.105469 424.523438 281.625 425.738281 C 279.152344 426.96875 276.386719 427.558594 273.324219 427.492188 C 270.671875 427.441406 268.453125 426.496094 266.675781 424.65625 C 266.453125 424.40625 266.292969 424.125 266.203125 423.8125 C 266.117188 423.519531 266.160156 423.214844 266.335938 422.902344 C 266.5625 422.609375 266.867188 422.4375 267.246094 422.398438 C 267.609375 422.371094 267.949219 422.414062 268.261719 422.53125 C 268.691406 422.667969 269.121094 422.871094 269.542969 423.140625 C 269.863281 423.292969 270.175781 423.441406 270.488281 423.578125 C 272.632812 424.496094 274.699219 424.65625 276.699219 424.050781 C 278.679688 423.441406 280.394531 422.058594 281.828125 419.898438 C 283.3125 417.757812 284.613281 415.5625 285.710938 413.285156 C 285.777344 413.175781 285.835938 413.082031 285.878906 413.015625 C 288.332031 408.246094 290.46875 403.378906 292.289062 398.402344 C 292.601562 397.617188 292.660156 397.050781 292.460938 396.714844 C 292.257812 396.375 291.75 396.15625 290.941406 396.039062 C 290.585938 395.953125 290.222656 395.902344 289.859375 395.902344 C 289.546875 395.859375 289.234375 395.835938 288.914062 395.835938 C 288.5625 395.769531 288.257812 395.648438 288.003906 395.464844 C 287.757812 395.285156 287.691406 394.976562 287.800781 394.519531 C 287.894531 394.164062 288.097656 393.894531 288.410156 393.710938 C 288.703125 393.53125 289.035156 393.421875 289.386719 393.371094 C 289.4375 393.371094 289.515625 393.371094 289.625 393.371094 C 290.550781 393.167969 291.472656 393.050781 292.390625 393 C 293.242188 393 293.886719 392.789062 294.316406 392.359375 C 294.761719 391.910156 295.132812 391.304688 295.429688 390.535156 C 297.160156 385.746094 298.972656 380.953125 300.863281 376.160156 C 302.863281 370.894531 305.25 365.765625 308.019531 360.769531 C 309.164062 358.472656 310.660156 356.449219 312.507812 354.695312 C 313.46875 353.84375 314.507812 353.175781 315.613281 352.703125 C 316.734375 352.214844 317.941406 352.042969 319.222656 352.195312 C 319.46875 352.195312 319.695312 352.28125 319.898438 352.433594 C 320.117188 352.59375 320.285156 352.769531 320.402344 352.972656 C 320.605469 353.378906 320.554688 353.699219 320.269531 353.917969 C 320 354.144531 319.703125 354.316406 319.390625 354.425781 C 317.921875 355.03125 316.757812 355.875 315.882812 356.957031 C 315.003906 358.019531 314.210938 359.183594 313.519531 360.464844 C 310.75 365.621094 308.320312 370.851562 306.230469 376.160156 C 304.136719 381.449219 302.164062 386.808594 300.324219 392.222656 C 301.539062 392.925781 302.785156 393.269531 304.070312 393.269531 C 304.625 393.339844 305.214844 393.429688 305.824219 393.539062 C 305.933594 393.589844 306.09375 393.609375 306.296875 393.609375 C 306.582031 393.699219 306.886719 393.800781 307.207031 393.910156 C 307.316406 393.960938 307.425781 394.046875 307.546875 394.183594 C 307.679688 394.300781 307.722656 394.410156 307.679688 394.519531 C 307.679688 394.722656 307.613281 394.90625 307.476562 395.058594 C 307.34375 395.21875 307.207031 395.320312 307.074219 395.363281 C 305.628906 395.820312 304.171875 395.996094 302.683594 395.902344 C 302.324219 395.902344 301.925781 395.902344 301.503906 395.902344 C 299.699219 395.859375 298.5 396.695312 297.894531 398.402344 Z M 297.894531 398.402344 " fill-opacity="1" fill-rule="nonzero"/><path fill="#ffffff" d="M 332.167969 401.203125 C 330.546875 402.78125 328.667969 404.128906 326.53125 405.25 C 324.386719 406.382812 322.589844 407.125 321.132812 407.480469 C 319.6875 407.816406 318.203125 408.011719 316.675781 408.054688 C 314.222656 408.171875 311.96875 407.832031 309.925781 407.039062 C 306.550781 405.691406 305.386719 403.089844 306.417969 399.246094 C 307.386719 395.9375 309.351562 393.355469 312.324219 391.480469 C 315.308594 389.617188 318.398438 388.714844 321.570312 388.78125 C 321.570312 388.78125 321.585938 388.78125 321.636719 388.78125 C 322.449219 388.714844 323.207031 388.773438 323.933594 388.949219 C 325.164062 389.378906 325.941406 390.097656 326.261719 391.109375 C 326.597656 392.121094 326.378906 393.238281 325.621094 394.453125 C 323.839844 397.152344 321.417969 398.660156 318.363281 398.972656 C 316.3125 399.160156 314.347656 399.058594 312.457031 398.671875 C 312.09375 398.601562 311.765625 398.703125 311.480469 398.972656 C 311.210938 399.226562 311.050781 399.53125 311.007812 399.886719 C 310.441406 402.273438 311.175781 403.800781 313.199219 404.476562 C 315.714844 405.335938 318.332031 405.335938 321.03125 404.476562 C 324.136719 403.488281 327.089844 401.65625 329.90625 398.972656 C 332.714844 396.273438 334.335938 395.015625 334.765625 395.195312 C 335.1875 395.378906 335.324219 395.894531 335.171875 396.746094 C 334.785156 398.121094 333.789062 399.605469 332.167969 401.203125 Z M 314.382812 394.453125 C 314.222656 394.652344 314.09375 394.882812 314.011719 395.125 C 313.941406 395.355469 314.042969 395.558594 314.3125 395.734375 C 315.277344 396.300781 316.324219 396.503906 317.453125 396.339844 C 318.601562 396.191406 319.5625 395.757812 320.355469 395.058594 C 321.164062 394.34375 321.511719 393.472656 321.402344 392.460938 C 321.308594 392.082031 321.105469 391.84375 320.792969 391.75 C 320.5 391.667969 320.195312 391.640625 319.882812 391.683594 C 317.832031 392.046875 316 392.964844 314.382812 394.453125 Z M 314.382812 394.453125 " fill-opacity="1" fill-rule="nonzero"/><path fill="#ffffff" d="M 352.710938 391.582031 C 352.457031 393.5 351.546875 394.746094 349.976562 395.328125 C 348.425781 395.917969 347.917969 395.152344 348.457031 393.035156 C 349 390.925781 348.035156 390.394531 345.589844 391.449219 C 343.160156 392.484375 341.144531 393.792969 339.546875 395.363281 C 337.09375 397.859375 334.925781 400.558594 333.035156 403.464844 C 332.832031 403.714844 332.679688 403.925781 332.597656 404.105469 C 332.039062 404.914062 331.472656 405.683594 330.910156 406.398438 C 330.554688 406.898438 330.132812 407.210938 329.660156 407.34375 C 329.171875 407.460938 328.664062 407.472656 328.140625 407.378906 C 327.667969 407.335938 327.3125 407.167969 327.0625 406.871094 C 326.816406 406.558594 326.792969 406.1875 326.992188 405.757812 C 327.289062 405.015625 327.652344 404.257812 328.074219 403.464844 C 330.570312 398.832031 333.109375 394.171875 335.703125 389.492188 C 335.769531 389.421875 335.800781 389.371094 335.800781 389.320312 C 336.15625 388.605469 336.585938 387.929688 337.085938 387.296875 C 337.640625 386.6875 338.28125 386.445312 339.007812 386.554688 C 339.726562 386.671875 340.207031 387.109375 340.460938 387.871094 C 340.773438 388.839844 341.042969 389.390625 341.269531 389.523438 C 341.488281 389.640625 341.988281 389.542969 342.753906 389.21875 C 344.441406 388.613281 346.070312 388.191406 347.648438 387.9375 C 349.242188 387.691406 350.550781 387.761719 351.5625 388.140625 C 352.578125 388.503906 352.957031 389.652344 352.710938 391.582031 Z M 352.710938 391.582031 " fill-opacity="1" fill-rule="nonzero"/><path fill="#ffffff" d="M 568.277344 316.488281 C 568.09375 316.988281 567.90625 317.484375 567.703125 317.972656 C 565.746094 323.035156 563.636719 328.023438 561.390625 332.925781 C 549.757812 357.117188 537.269531 380.503906 523.929688 403.089844 C 519.585938 410.382812 515.136719 417.546875 510.597656 424.589844 C 506.078125 431.628906 501.503906 438.640625 496.894531 445.617188 C 495.816406 447.253906 494.71875 448.898438 493.621094 450.542969 C 493.554688 450.679688 493.496094 450.78125 493.453125 450.847656 C 493.199219 451.335938 492.914062 451.757812 492.578125 452.097656 C 492.238281 452.433594 491.78125 452.601562 491.226562 452.601562 C 490.972656 452.601562 490.703125 452.535156 490.417969 452.402344 C 490.144531 452.28125 489.925781 452.128906 489.773438 451.929688 C 489.640625 451.769531 489.539062 451.496094 489.472656 451.117188 C 489.421875 450.730469 489.453125 450.425781 489.574219 450.207031 C 490.316406 448.605469 491.140625 447.078125 492.070312 445.617188 C 494.113281 442.257812 496.1875 438.902344 498.28125 435.527344 C 502.210938 429.265625 506.078125 422.988281 509.855469 416.691406 C 518.242188 402.679688 526.265625 388.367188 533.921875 373.761719 C 541.589844 359.140625 549.074219 344.367188 556.363281 329.449219 C 559.28125 323.695312 561.695312 317.527344 563.585938 310.953125 C 563.964844 309.832031 564.261719 308.660156 564.464844 307.445312 C 564.667969 306.210938 564.765625 304.9375 564.765625 303.628906 C 564.582031 300.820312 563.390625 299.597656 561.191406 299.953125 C 559.25 300.339844 557.417969 300.949219 555.6875 301.773438 C 551.589844 303.757812 547.554688 305.941406 543.574219 308.320312 C 522.191406 321.308594 502.734375 337.40625 485.183594 356.617188 C 484.933594 356.9375 484.652344 357.25 484.339844 357.5625 C 478.28125 364.160156 472.265625 370.808594 466.285156 377.507812 C 460.320312 384.21875 454.523438 391.109375 448.902344 398.199219 C 447.730469 399.683594 446.507812 401.066406 445.226562 402.347656 C 443.875 403.765625 442.253906 404.324219 440.363281 404.003906 C 439.554688 403.894531 438.886719 403.496094 438.375 402.820312 C 437.851562 402.148438 437.648438 401.355469 437.765625 400.425781 C 438.144531 397.910156 438.695312 395.488281 439.421875 393.167969 C 441.691406 385.769531 444.085938 378.453125 446.609375 371.230469 C 446.964844 370.136719 447.300781 369.0625 447.621094 368.027344 C 448.269531 365.324219 449.214844 362.84375 450.457031 360.566406 C 450.457031 360.5 450.421875 360.464844 450.355469 360.464844 C 450.058594 360.3125 449.757812 360.1875 449.445312 360.09375 C 449.148438 359.984375 448.84375 360.085938 448.53125 360.398438 C 447.402344 361.613281 446.339844 362.886719 445.328125 364.210938 C 436.863281 375.6875 428.484375 387.261719 420.183594 398.941406 C 411.898438 410.601562 403.796875 422.4375 395.882812 434.480469 C 395.222656 435.644531 394.480469 436.605469 393.65625 437.347656 C 392.84375 438.089844 391.75 438.328125 390.382812 438.058594 C 389.773438 437.894531 389.300781 437.523438 388.964844 436.941406 C 388.625 436.351562 388.558594 435.777344 388.761719 435.222656 C 389.476562 433.578125 390.261719 432.023438 391.125 430.5625 C 393.570312 426.328125 396 422.101562 398.414062 417.875 C 403.222656 409.503906 408 401.09375 412.722656 392.628906 C 420.054688 379.652344 426.601562 365.992188 432.367188 351.65625 C 434.609375 346.148438 436.457031 340.367188 437.902344 334.308594 C 438.660156 331.070312 438.988281 327.695312 438.878906 324.183594 C 438.515625 318.582031 436.652344 314.566406 433.277344 312.136719 C 429.917969 309.707031 425.5 308.558594 420.015625 308.691406 C 414.546875 308.8125 408.472656 309.925781 401.789062 312.035156 C 395.105469 314.152344 388.261719 316.953125 381.269531 320.4375 C 374.25 323.929688 367.492188 327.777344 360.984375 331.980469 C 354.460938 336.164062 348.65625 340.417969 343.570312 344.738281 C 338.492188 349.058594 334.523438 353.109375 331.691406 356.886719 C 328.71875 361.054688 326.1875 365.644531 324.097656 370.65625 C 323.042969 373.046875 322.433594 375.644531 322.273438 378.453125 C 322.207031 379.019531 321.929688 379.449219 321.429688 379.738281 C 320.941406 380.007812 320.375 380.089844 319.742188 379.972656 C 318.78125 379.660156 318.171875 378.894531 317.921875 377.679688 C 317.769531 376.058594 317.886719 374.589844 318.292969 373.257812 C 319.21875 369.882812 320.441406 366.691406 321.96875 363.671875 C 324.789062 358.433594 329.058594 353.066406 334.796875 347.574219 C 340.515625 342.089844 347.179688 336.832031 354.808594 331.8125 C 362.4375 326.800781 370.402344 322.320312 378.703125 318.378906 C 386.980469 314.449219 395.082031 311.382812 403.003906 309.199219 C 410.945312 307.023438 418.097656 306.042969 424.46875 306.261719 C 430.832031 306.464844 435.851562 308.210938 439.519531 311.496094 C 443.183594 314.757812 444.964844 319.914062 444.855469 326.953125 C 444.652344 331.5 443.941406 335.8125 442.726562 339.878906 C 440.945312 345.910156 438.886719 351.722656 436.550781 357.328125 C 434.230469 362.929688 431.765625 368.421875 429.160156 373.796875 C 428.351562 375.46875 428.164062 376.277344 428.621094 376.226562 C 429.09375 376.183594 429.785156 375.550781 430.710938 374.335938 C 434.019531 369.933594 437.328125 365.585938 440.636719 361.308594 C 442.878906 358.457031 445.175781 355.640625 447.519531 352.871094 C 447.832031 352.492188 448.136719 352.121094 448.429688 351.757812 C 449.78125 350.121094 451.402344 349.015625 453.292969 348.449219 C 454.707031 348.136719 455.898438 348.449219 456.867188 349.394531 C 457.855469 350.339844 458.195312 351.773438 457.882812 353.683594 C 457.832031 353.867188 457.78125 354.054688 457.710938 354.253906 C 457.214844 356.710938 456.632812 359.082031 455.957031 361.375 C 454.175781 367.03125 452.347656 372.640625 450.457031 378.21875 C 449.527344 381.078125 448.609375 383.980469 447.6875 386.925781 C 447.503906 387.355469 447.226562 388.125 446.84375 389.21875 C 446.480469 390.214844 446.136719 391.179688 445.796875 392.121094 C 445.476562 393.066406 445.226562 393.792969 445.023438 394.28125 C 445.265625 394.082031 447.535156 391.539062 451.839844 386.65625 C 457.644531 379.972656 464.53125 372.160156 472.496094 363.199219 C 480.460938 354.222656 486.703125 347.371094 491.226562 342.644531 C 499.613281 334.207031 508.445312 326.539062 517.71875 319.628906 C 526.984375 312.726562 536.601562 306.464844 546.578125 300.863281 C 549.023438 299.582031 551.546875 298.425781 554.136719 297.386719 C 554.691406 297.210938 555.234375 297 555.757812 296.746094 C 558.203125 295.757812 560.820312 295.386719 563.585938 295.632812 C 568.867188 296.15625 571.289062 299.496094 570.84375 305.65625 C 570.523438 309.503906 569.667969 313.113281 568.277344 316.488281 Z M 450.152344 360.230469 C 450.289062 360.347656 450.390625 360.421875 450.457031 360.464844 C 450.457031 360.464844 450.457031 360.5 450.457031 360.566406 C 450.5 360.566406 450.523438 360.53125 450.523438 360.464844 C 450.40625 360.421875 450.289062 360.347656 450.152344 360.230469 Z M 450.152344 360.230469 " fill-opacity="1" fill-rule="nonzero"/><path fill="#ffffff" d="M 572.652344 395.9375 C 573.304688 396.324219 573.363281 397.234375 572.824219 398.671875 C 572.011719 399.734375 571.144531 400.722656 570.222656 401.640625 C 569.296875 402.542969 568.300781 403.363281 567.21875 404.105469 C 567.128906 404.105469 567.085938 404.128906 567.085938 404.171875 C 566.359375 404.667969 565.601562 405.101562 564.789062 405.453125 C 558.148438 407.867188 554.75 406.464844 554.597656 401.269531 C 551.898438 403.589844 550.09375 405.015625 549.199219 405.554688 C 546.988281 406.863281 544.609375 407.445312 542.042969 407.308594 C 540.152344 407.199219 538.871094 406.628906 538.195312 405.589844 C 537.503906 404.535156 537.554688 403.117188 538.363281 401.335938 C 539.605469 398.527344 541.351562 396.019531 543.59375 393.808594 C 546.226562 391.378906 549.164062 389.421875 552.402344 387.9375 C 554.132812 387.085938 555.949219 386.75 557.839844 386.925781 C 559.726562 387.042969 560.859375 388.125 561.246094 390.164062 C 561.398438 390.773438 561.246094 391.3125 560.773438 391.785156 C 560.167969 392.351562 559.457031 392.476562 558.648438 392.15625 C 558.597656 392.15625 558.519531 392.148438 558.410156 392.121094 C 558.320312 392.082031 558.25 392.039062 558.210938 391.988281 C 557.398438 390.867188 556.574219 390.402344 555.746094 390.605469 C 554.933594 390.789062 554.066406 391.144531 553.148438 391.683594 C 548.867188 394.207031 545.6875 397.707031 543.59375 402.179688 C 543.476562 402.367188 543.402344 402.578125 543.359375 402.820312 C 543.332031 403.050781 543.410156 403.242188 543.59375 403.394531 C 544.085938 403.554688 544.640625 403.523438 545.25 403.292969 C 545.875 403.050781 546.496094 402.703125 547.105469 402.246094 C 547.714844 401.777344 548.226562 401.394531 548.65625 401.101562 C 548.699219 401.015625 548.726562 400.964844 548.726562 400.964844 C 550.75 399.261719 552.742188 397.515625 554.699219 395.734375 C 555.550781 394.816406 556.621094 394.308594 557.90625 394.214844 C 559.746094 394.214844 560.511719 395.027344 560.199219 396.644531 C 560.039062 397.277344 559.863281 397.894531 559.660156 398.5 C 558.933594 401.132812 558.902344 402.6875 559.558594 403.160156 C 560.234375 403.613281 561.253906 403.613281 562.628906 403.160156 C 564.023438 402.6875 565.40625 401.808594 566.78125 400.527344 C 568.148438 399.226562 569.3125 398.046875 570.257812 396.984375 C 571.203125 395.902344 571.996094 395.558594 572.652344 395.9375 Z M 572.652344 395.9375 " fill-opacity="1" fill-rule="nonzero"/><path fill="#ffffff" d="M 600.15625 395.464844 C 600.289062 395.464844 600.441406 395.496094 600.628906 395.566406 C 600.804688 395.632812 600.949219 395.726562 601.066406 395.835938 C 601.445312 396.199219 601.488281 396.628906 601.203125 397.117188 C 600.796875 397.546875 600.410156 397.910156 600.054688 398.199219 C 597.910156 400.179688 595.539062 401.835938 592.933594 403.160156 C 588.816406 405.25 584.277344 406.332031 579.332031 406.398438 C 577.484375 406.449219 575.585938 406.128906 573.628906 405.453125 C 570.066406 404.085938 568.632812 401.523438 569.308594 397.757812 C 570.117188 394.273438 572.074219 391.378906 575.179688 389.085938 C 578.300781 386.789062 581.644531 385.804688 585.203125 386.117188 C 585.878906 386.234375 586.539062 386.378906 587.195312 386.554688 C 587.820312 386.808594 588.285156 387.179688 588.578125 387.667969 C 588.890625 388.164062 588.925781 388.5625 588.679688 388.847656 C 588.003906 389.574219 587.238281 389.753906 586.386719 389.390625 C 585.101562 388.847656 583.921875 388.707031 582.84375 388.949219 C 581.761719 389.203125 580.683594 389.785156 579.601562 390.707031 C 578.539062 391.5 577.390625 392.664062 576.160156 394.214844 C 574.945312 395.75 574.167969 397.285156 573.832031 398.839844 C 573.511719 400.390625 574.210938 401.65625 575.921875 402.621094 C 577.878906 403.496094 579.871094 403.714844 581.898438 403.261719 C 586.960938 402.230469 591.660156 400.308594 596.003906 397.488281 C 596.410156 397.3125 596.753906 397.085938 597.050781 396.8125 C 597.523438 396.460938 598.003906 396.164062 598.5 395.9375 C 598.992188 395.691406 599.546875 395.53125 600.15625 395.464844 Z M 600.15625 395.464844 " fill-opacity="1" fill-rule="nonzero"/><path fill="#ffffff" d="M 763.195312 433.769531 C 763.238281 433.769531 763.332031 433.769531 763.464844 433.769531 C 763.886719 433.8125 764.308594 433.90625 764.714844 434.039062 C 765.117188 434.175781 765.464844 434.421875 765.761719 434.78125 C 765.871094 434.894531 765.960938 435.035156 766.03125 435.222656 C 766.113281 435.425781 766.113281 435.601562 766.03125 435.761719 C 765.960938 435.964844 765.84375 436.140625 765.691406 436.300781 C 765.558594 436.453125 765.429688 436.539062 765.320312 436.539062 C 764.554688 436.648438 763.785156 436.648438 763.027344 436.539062 C 744.347656 432.664062 723.648438 430.167969 700.925781 429.046875 C 678.195312 427.914062 657.238281 428.320312 638.050781 430.261719 C 637.171875 430.328125 636.335938 430.429688 635.550781 430.5625 C 634.808594 430.605469 634.109375 430.664062 633.460938 430.734375 C 631.316406 431.019531 629.484375 431.964844 627.957031 433.566406 C 624.492188 437.324219 620.6875 440.628906 616.550781 443.492188 C 613.285156 445.691406 609.699219 446.917969 605.785156 447.167969 C 604.183594 447.277344 602.65625 447.035156 601.195312 446.425781 C 599.792969 445.820312 598.898438 444.890625 598.496094 443.660156 C 598.089844 442.445312 598.257812 441.136719 599 439.746094 C 600.234375 437.761719 602.257812 436.066406 605.078125 434.648438 C 607.886719 433.246094 610.882812 432.101562 614.054688 431.207031 C 617.242188 430.328125 619.941406 429.667969 622.152344 429.246094 C 625.097656 428.707031 627.488281 427.273438 629.308594 424.960938 C 638.195312 414.160156 646.730469 401.945312 654.925781 388.308594 C 663.109375 374.65625 670.660156 360.601562 677.570312 346.15625 C 684.5 331.710938 690.445312 317.890625 695.425781 304.675781 C 695.601562 303.984375 695.898438 303.378906 696.300781 302.855469 C 696.707031 302.339844 697.289062 301.976562 698.058594 301.773438 C 698.816406 301.664062 699.476562 301.808594 700.015625 302.214844 C 700.554688 302.617188 700.765625 303.183594 700.65625 303.902344 C 700.402344 305.636719 699.980469 307.324219 699.375 308.964844 C 694.597656 321.519531 688.953125 334.597656 682.429688 348.179688 C 675.902344 361.773438 668.796875 375.027344 661.101562 387.9375 C 653.421875 400.855469 645.515625 412.542969 637.375 423.003906 C 635.6875 425.140625 635.164062 426.378906 635.824219 426.714844 C 636.496094 427.070312 637.8125 427.0625 639.769531 426.683594 C 640.191406 426.617188 640.625 426.554688 641.054688 426.515625 C 656.351562 424.777344 672.222656 424.253906 688.675781 424.929688 C 705.121094 425.621094 721.328125 427.0625 737.308594 429.246094 C 742.929688 430.058594 748.445312 430.976562 753.847656 432.015625 C 757.019531 432.621094 760.132812 433.207031 763.195312 433.769531 Z M 608.082031 443.21875 C 612.753906 441.304688 616.628906 438.308594 619.691406 434.242188 C 614.644531 434.597656 610.15625 436.148438 606.222656 438.902344 C 605.007812 439.820312 604.285156 440.707031 604.0625 441.566406 C 603.863281 442.445312 604.105469 443.070312 604.804688 443.457031 C 605.523438 443.835938 606.613281 443.761719 608.082031 443.21875 Z M 608.082031 443.21875 " fill-opacity="1" fill-rule="nonzero"/><path fill="#ffffff" d="M 698.933594 401.203125 C 697.3125 402.78125 695.429688 404.128906 693.296875 405.25 C 691.152344 406.382812 689.355469 407.125 687.894531 407.480469 C 686.453125 407.816406 684.96875 408.011719 683.441406 408.054688 C 680.984375 408.171875 678.734375 407.832031 676.691406 407.039062 C 673.316406 405.691406 672.152344 403.089844 673.179688 399.246094 C 674.152344 395.9375 676.117188 393.355469 679.085938 391.480469 C 682.074219 389.617188 685.164062 388.714844 688.335938 388.78125 C 688.335938 388.78125 688.351562 388.78125 688.402344 388.78125 C 689.210938 388.714844 689.972656 388.773438 690.699219 388.949219 C 691.929688 389.378906 692.707031 390.097656 693.027344 391.109375 C 693.363281 392.121094 693.144531 393.238281 692.386719 394.453125 C 690.605469 397.152344 688.183594 398.660156 685.128906 398.972656 C 683.078125 399.160156 681.113281 399.058594 679.222656 398.671875 C 678.859375 398.601562 678.53125 398.703125 678.242188 398.972656 C 677.972656 399.226562 677.8125 399.53125 677.769531 399.886719 C 677.207031 402.273438 677.941406 403.800781 679.964844 404.476562 C 682.480469 405.335938 685.09375 405.335938 687.792969 404.476562 C 690.898438 403.488281 693.851562 401.65625 696.671875 398.972656 C 699.480469 396.273438 701.101562 395.015625 701.53125 395.195312 C 701.953125 395.378906 702.089844 395.894531 701.9375 396.746094 C 701.546875 398.121094 700.550781 399.605469 698.933594 401.203125 Z M 681.144531 394.453125 C 680.984375 394.652344 680.859375 394.882812 680.773438 395.125 C 680.707031 395.355469 680.808594 395.558594 681.078125 395.734375 C 682.039062 396.300781 683.085938 396.503906 684.21875 396.339844 C 685.363281 396.191406 686.328125 395.757812 687.121094 395.058594 C 687.929688 394.34375 688.277344 393.472656 688.167969 392.460938 C 688.074219 392.082031 687.871094 391.84375 687.558594 391.75 C 687.261719 391.667969 686.960938 391.640625 686.648438 391.683594 C 684.597656 392.046875 682.765625 392.964844 681.144531 394.453125 Z M 681.144531 394.453125 " fill-opacity="1" fill-rule="nonzero"/><path fill="#ffffff" d="M 706.078125 407.308594 L 705.941406 407.308594 C 701.910156 407.242188 699.257812 406.347656 697.976562 404.609375 C 696.695312 402.878906 696.753906 400.558594 698.144531 397.65625 C 699.320312 395.457031 700.785156 393.53125 702.566406 391.886719 C 703.175781 391.347656 703.789062 390.90625 704.421875 390.570312 C 705.074219 390.234375 705.808594 390.0625 706.617188 390.0625 C 707.089844 389.980469 707.628906 390.054688 708.238281 390.300781 C 708.4375 390.367188 708.625 390.453125 708.8125 390.535156 C 709.28125 390.453125 709.738281 390.292969 710.195312 390.0625 C 710.304688 389.980469 710.464844 389.914062 710.667969 389.863281 C 711.585938 389.507812 712.558594 389.347656 713.570312 389.390625 C 713.992188 389.390625 714.429688 389.390625 714.886719 389.390625 C 716.523438 389.640625 717.761719 390.335938 718.597656 391.480469 C 719.425781 392.613281 719.71875 393.972656 719.476562 395.566406 C 719.316406 396.5625 719.003906 397.480469 718.53125 398.332031 C 715.332031 404.070312 711.257812 407.066406 706.3125 407.308594 Z M 712.65625 392.359375 C 710.449219 392.273438 708.488281 392.898438 706.785156 394.25 C 705.074219 395.597656 703.796875 397.152344 702.972656 398.90625 C 702.136719 400.660156 701.898438 402.105469 702.261719 403.226562 C 702.644531 404.355469 703.816406 404.667969 705.773438 404.171875 C 707.976562 403.496094 709.90625 402.246094 711.578125 400.425781 C 713.265625 398.585938 714.296875 396.839844 714.683594 395.195312 C 715.0625 393.53125 714.386719 392.585938 712.65625 392.359375 Z M 712.65625 392.359375 " fill-opacity="1" fill-rule="nonzero"/><path fill="#ffffff" d="M 758.648438 395.226562 C 759.230469 395.386719 759.53125 395.597656 759.558594 395.871094 C 759.601562 396.140625 759.625 396.273438 759.625 396.273438 C 758.949219 397.445312 758.183594 398.527344 757.332031 399.515625 C 755.347656 401.699219 753.050781 403.445312 750.445312 404.746094 C 749.164062 405.488281 747.710938 405.882812 746.089844 405.925781 C 742.355469 405.996094 740.640625 404.1875 740.960938 400.492188 C 741.097656 399.734375 741.273438 398.964844 741.5 398.199219 C 741.636719 397.84375 741.738281 397.480469 741.804688 397.117188 C 742.160156 395.792969 742.261719 395.050781 742.109375 394.890625 C 741.949219 394.738281 741.511719 395.117188 740.792969 396.039062 C 740.589844 396.199219 740.40625 396.375 740.253906 396.578125 C 739.121094 397.910156 737.976562 399.210938 736.808594 400.492188 C 734.667969 402.949219 732.230469 405.007812 729.488281 406.667969 C 727.839844 407.664062 726.09375 408.179688 724.253906 408.222656 C 721.269531 408.355469 719.589844 406.988281 719.226562 404.105469 C 719.074219 402.941406 719.117188 401.777344 719.363281 400.628906 C 720.601562 395.902344 723.050781 392.308594 726.71875 389.828125 C 730.382812 387.355469 734.589844 386.476562 739.339844 387.195312 C 740.667969 387.582031 741.636719 387.222656 742.246094 386.117188 C 742.488281 385.695312 742.734375 385.253906 742.988281 384.800781 C 744.269531 382.621094 745.527344 380.429688 746.765625 378.21875 C 749.0625 373.992188 751.375 369.730469 753.71875 365.425781 C 755.609375 362.078125 757.507812 358.695312 759.421875 355.269531 C 759.964844 354.214844 760.570312 353.191406 761.246094 352.195312 C 761.558594 351.722656 761.9375 351.445312 762.394531 351.351562 C 762.839844 351.269531 763.320312 351.21875 763.84375 351.21875 C 763.953125 351.21875 764.082031 351.21875 764.214844 351.21875 C 764.773438 351.21875 765.210938 351.351562 765.53125 351.621094 C 765.871094 351.894531 765.945312 352.265625 765.769531 352.738281 C 765.378906 353.910156 764.941406 355.023438 764.453125 356.078125 C 761.886719 361.207031 759.464844 366.398438 757.195312 371.636719 C 754.941406 376.886719 752.714844 382.160156 750.511719 387.464844 C 749.789062 389.3125 749.0625 391.160156 748.320312 393 C 747.390625 395.144531 746.632812 397.335938 746.023438 399.582031 C 745.839844 400.078125 745.753906 400.578125 745.753906 401.066406 C 745.753906 401.566406 745.992188 401.996094 746.464844 402.347656 C 746.773438 402.535156 747.085938 402.570312 747.40625 402.449219 C 747.746094 402.316406 748.117188 402.171875 748.523438 402.011719 C 748.5625 401.925781 748.640625 401.859375 748.757812 401.808594 C 751.40625 400.28125 753.828125 398.433594 756.015625 396.273438 C 756.367188 395.917969 756.757812 395.617188 757.160156 395.363281 C 757.566406 395.117188 758.054688 395.074219 758.648438 395.226562 Z M 738.027344 392.527344 C 738.335938 392.039062 738.429688 391.566406 738.296875 391.109375 C 738.175781 390.636719 737.875 390.292969 737.382812 390.0625 C 736.347656 389.507812 735.242188 389.441406 734.078125 389.863281 C 731.191406 390.722656 728.785156 392.359375 726.855469 394.789062 C 724.914062 397.203125 723.867188 399.867188 723.714844 402.789062 C 723.78125 402.921875 723.816406 403.023438 723.816406 403.089844 C 723.816406 403.34375 723.816406 403.589844 723.816406 403.835938 C 724.0625 405.183594 724.878906 405.453125 726.28125 404.644531 C 727.699219 403.816406 729.265625 402.476562 731.003906 400.628906 C 732.734375 398.789062 734.289062 397.042969 735.664062 395.398438 C 737.054688 393.734375 737.839844 392.78125 738.027344 392.527344 Z M 738.027344 392.527344 " fill-opacity="1" fill-rule="nonzero"/><g clip-path="url(#7c2bda245e)"><path fill="#ad9551" d="M 795.089844 478.019531 L 791.882812 476.558594 L 791.902344 471.671875 L 788.273438 470.316406 L 787.886719 465.640625 L 785.480469 464.839844 L 783.277344 461.261719 L 785.625 459.792969 L 784.410156 457.800781 L 783.195312 458.019531 L 783.195312 458.003906 C 787.082031 453.785156 788.136719 447.894531 785.378906 443.40625 C 783.023438 439.59375 778.503906 437.796875 773.820312 438.320312 C 773.804688 438.292969 773.804688 438.261719 773.785156 438.234375 C 771.914062 433.664062 767.515625 430.691406 762.5625 430.691406 C 755.90625 430.691406 750.472656 436.117188 750.472656 442.78125 C 750.472656 444.109375 750.691406 445.414062 751.105469 446.65625 L 728.847656 452.941406 L 732.882812 455.515625 L 724.15625 469.199219 L 748.820312 484.910156 L 757.535156 471.210938 L 761.71875 473.882812 L 758.523438 454.15625 C 759.164062 454.382812 759.804688 454.5625 760.480469 454.671875 L 760.625 454.707031 C 760.867188 455.800781 761.296875 456.875 761.90625 457.878906 C 764.65625 462.332031 770.34375 464.039062 775.820312 462.511719 L 775.203125 463.464844 L 776.4375 465.453125 L 778.207031 464.367188 L 789.785156 483.148438 L 793.832031 483.375 L 795.648438 480.289062 Z M 749.6875 473.511719 C 745.96875 475.875 739.292969 475.046875 737.808594 474.8125 C 737.625 474.785156 737.453125 474.667969 737.371094 474.5 C 735.785156 471.539062 735.210938 468.09375 735.007812 466.308594 C 734.882812 465.152344 734.964844 463.976562 735.292969 462.882812 C 736.46875 458.914062 739.742188 458.171875 739.742188 458.171875 C 744.769531 456.890625 746.683594 462.679688 746.683594 462.679688 C 751.394531 463.234375 752.488281 466.347656 752.488281 466.347656 C 754.363281 470.6875 749.6875 473.511719 749.6875 473.511719 Z M 752.421875 452.757812 C 751.15625 451.953125 750.800781 450.300781 751.585938 449.042969 C 751.707031 448.867188 751.832031 448.714844 751.976562 448.589844 C 752.09375 448.78125 752.1875 448.984375 752.304688 449.1875 C 752.84375 450.074219 754.546875 451.929688 755.375 452.730469 C 754.507812 453.304688 753.351562 453.347656 752.421875 452.757812 Z M 754.792969 448.285156 C 754.710938 448.15625 754.617188 448.015625 754.53125 447.886719 C 754.800781 447.957031 755.0625 448.054688 755.316406 448.21875 C 756.066406 448.679688 756.480469 449.457031 756.546875 450.277344 C 755.992188 449.683594 755.003906 448.589844 754.792969 448.285156 Z M 760.378906 452.046875 C 759.652344 451.871094 758.953125 451.617188 758.277344 451.289062 L 758.050781 451.171875 L 757.046875 444.984375 L 753.585938 445.957031 C 753.585938 445.9375 753.585938 445.9375 753.578125 445.921875 C 753.214844 444.910156 753.046875 443.855469 753.046875 442.78125 C 753.046875 437.535156 757.324219 433.257812 762.5625 433.257812 C 766.300781 433.257812 769.703125 435.460938 771.246094 438.867188 C 769.945312 439.246094 768.65625 439.804688 767.425781 440.582031 C 763.027344 443.28125 760.480469 447.726562 760.378906 452.046875 Z M 768.859375 449.914062 C 768.359375 448.285156 768.984375 446.46875 770.488281 445.542969 C 770.902344 445.28125 771.347656 445.128906 771.804688 445.035156 C 771.347656 446.941406 770.328125 448.628906 768.859375 449.914062 Z M 774.503906 452.054688 C 773.203125 452.859375 771.601562 452.773438 770.402344 451.988281 C 772.378906 450.300781 773.777344 447.996094 774.34375 445.484375 C 774.910156 445.796875 775.390625 446.226562 775.742188 446.800781 C 776.867188 448.597656 776.308594 450.941406 774.503906 452.054688 Z M 793.285156 483.082031 C 793.074219 483.207031 792.804688 483.183594 792.6875 482.988281 L 779.21875 461.132812 C 779.109375 460.964844 779.195312 460.703125 779.421875 460.5625 C 779.632812 460.433594 779.902344 460.460938 780.023438 460.644531 L 793.488281 482.507812 C 793.597656 482.691406 793.511719 482.9375 793.285156 483.082031 Z M 793.285156 483.082031 " fill-opacity="1" fill-rule="nonzero"/></g></svg>