<svg xmlns="http://www.w3.org/2000/svg" xmlns:xlink="http://www.w3.org/1999/xlink" width="500" zoomAndPan="magnify" viewBox="0 0 375 374.999991" height="500" preserveAspectRatio="xMidYMid meet" version="1.0"><defs><g/><clipPath id="caa6928306"><path d="M 335.234375 199.394531 L 368.234375 199.394531 L 368.234375 224.144531 L 335.234375 224.144531 Z M 335.234375 199.394531 " clip-rule="nonzero"/></clipPath></defs><g fill="#000000" fill-opacity="1"><g transform="translate(24.633473, 193.147768)"><g><path d="M 131.296875 2.015625 C 131.367188 2.015625 131.453125 2.015625 131.546875 2.015625 C 131.742188 2.015625 131.941406 2.035156 132.140625 2.078125 C 132.335938 2.117188 132.519531 2.222656 132.6875 2.390625 C 132.726562 2.441406 132.765625 2.503906 132.796875 2.578125 C 132.835938 2.648438 132.859375 2.734375 132.859375 2.828125 C 132.835938 2.878906 132.800781 2.9375 132.75 3 C 132.707031 3.070312 132.660156 3.128906 132.609375 3.171875 C 132.378906 3.222656 132.140625 3.234375 131.890625 3.203125 C 131.773438 3.203125 131.648438 3.203125 131.515625 3.203125 C 130.085938 3.117188 128.664062 3.019531 127.25 2.90625 C 124.632812 2.707031 122.03125 2.523438 119.4375 2.359375 C 108.6875 1.671875 98.070312 1.296875 87.59375 1.234375 C 77.125 1.179688 66.503906 1.332031 55.734375 1.6875 C 54.597656 1.707031 53.460938 1.773438 52.328125 1.890625 C 51.265625 1.972656 50.191406 2.023438 49.109375 2.046875 C 48.066406 2.085938 47.25 2.546875 46.65625 3.421875 C 43.988281 6.960938 41.09375 10.316406 37.96875 13.484375 C 35.78125 15.734375 33.5 17.75 31.125 19.53125 C 28.75 21.3125 26.25 22.726562 23.625 23.78125 C 21 24.832031 18.265625 25.347656 15.421875 25.328125 C 12.578125 25.316406 9.609375 24.617188 6.515625 23.234375 C 5.066406 22.609375 3.789062 21.710938 2.6875 20.546875 C 0.894531 18.503906 0.695312 16.304688 2.09375 13.953125 C 3.082031 12.429688 4.351562 11.175781 5.90625 10.1875 C 8.269531 8.625 11.019531 7.300781 14.15625 6.21875 C 17.300781 5.132812 20.625 4.253906 24.125 3.578125 C 27.625 2.898438 31.0625 2.363281 34.4375 1.96875 C 37.8125 1.570312 40.890625 1.273438 43.671875 1.078125 C 44.804688 0.992188 45.679688 0.5 46.296875 -0.40625 C 48.597656 -3.726562 51.046875 -7.617188 53.640625 -12.078125 C 56.234375 -16.546875 58.726562 -21.242188 61.125 -26.171875 C 63.519531 -31.097656 65.582031 -35.894531 67.3125 -40.5625 C 69.039062 -45.226562 70.195312 -49.425781 70.78125 -53.15625 C 70.957031 -54.289062 70.921875 -55.425781 70.671875 -56.5625 C 70.210938 -58.382812 69.078125 -59.421875 67.265625 -59.671875 C 67.015625 -59.703125 66.769531 -59.71875 66.53125 -59.71875 C 65.988281 -59.71875 65.457031 -59.644531 64.9375 -59.5 C 62.601562 -59.019531 59.722656 -57.957031 56.296875 -56.3125 C 52.867188 -54.675781 49.269531 -52.632812 45.5 -50.1875 C 41.726562 -47.75 38.117188 -45.078125 34.671875 -42.171875 C 31.234375 -39.265625 28.320312 -36.3125 25.9375 -33.3125 C 23.550781 -30.3125 22.035156 -27.40625 21.390625 -24.59375 C 20.878906 -22.1875 21.726562 -20.429688 23.9375 -19.328125 C 25.71875 -18.535156 27.613281 -18.1875 29.625 -18.28125 C 31.644531 -18.382812 33.578125 -18.625 35.421875 -19 C 36.554688 -19.238281 37.691406 -19.359375 38.828125 -19.359375 C 39.304688 -19.359375 39.769531 -19.332031 40.21875 -19.28125 C 40.332031 -19.28125 40.441406 -19.242188 40.546875 -19.171875 C 40.648438 -19.109375 40.679688 -18.992188 40.640625 -18.828125 C 40.585938 -18.535156 40.429688 -18.378906 40.171875 -18.359375 C 38.617188 -18.210938 37.050781 -18.015625 35.46875 -17.765625 C 33.53125 -17.410156 31.59375 -17.175781 29.65625 -17.0625 C 27.71875 -16.957031 25.800781 -17.15625 23.90625 -17.65625 C 22.9375 -17.914062 22.039062 -18.316406 21.21875 -18.859375 C 19.238281 -20.191406 18.429688 -22.035156 18.796875 -24.390625 C 19.367188 -27.390625 20.898438 -30.503906 23.390625 -33.734375 C 25.878906 -36.972656 28.941406 -40.117188 32.578125 -43.171875 C 36.222656 -46.234375 40.066406 -49.039062 44.109375 -51.59375 C 48.148438 -54.144531 52 -56.25 55.65625 -57.90625 C 59.3125 -59.5625 62.40625 -60.585938 64.9375 -60.984375 C 65.550781 -61.109375 66.164062 -61.15625 66.78125 -61.125 C 67.863281 -61.15625 68.914062 -61.015625 69.9375 -60.703125 C 71.800781 -60.109375 72.976562 -58.84375 73.46875 -56.90625 C 73.894531 -54.832031 73.640625 -52.003906 72.703125 -48.421875 C 71.773438 -44.847656 70.398438 -40.863281 68.578125 -36.46875 C 66.765625 -32.070312 64.742188 -27.65625 62.515625 -23.21875 C 60.296875 -18.78125 58.128906 -14.695312 56.015625 -10.96875 C 53.910156 -7.25 52.09375 -4.253906 50.5625 -1.984375 C 50.132812 -1.378906 49.71875 -0.769531 49.3125 -0.15625 C 49.238281 0.0078125 49.242188 0.160156 49.328125 0.296875 C 49.410156 0.441406 49.550781 0.515625 49.75 0.515625 L 49.78125 0.515625 C 50.300781 0.515625 50.816406 0.503906 51.328125 0.484375 C 52.816406 0.429688 54.316406 0.359375 55.828125 0.265625 C 58.992188 0.128906 62.171875 0.015625 65.359375 -0.078125 C 87.378906 -0.722656 109.359375 -0.0234375 131.296875 2.015625 Z M 41.625 5.71875 C 41.769531 5.539062 41.925781 5.351562 42.09375 5.15625 C 42.375 4.820312 42.660156 4.453125 42.953125 4.046875 C 43.253906 3.648438 43.519531 3.179688 43.75 2.640625 C 43.488281 2.640625 43.25 2.640625 43.03125 2.640625 C 42.945312 2.640625 42.859375 2.640625 42.765625 2.640625 C 42.660156 2.640625 42.539062 2.640625 42.40625 2.640625 C 41.488281 2.765625 40.566406 2.882812 39.640625 3 C 38.441406 3.132812 37.25 3.273438 36.0625 3.421875 C 33.300781 3.679688 30.109375 4.140625 26.484375 4.796875 C 22.859375 5.460938 19.300781 6.367188 15.8125 7.515625 C 12.332031 8.660156 9.472656 10.097656 7.234375 11.828125 C 6.472656 12.429688 5.773438 13.113281 5.140625 13.875 C 3.273438 16.226562 3.460938 18.398438 5.703125 20.390625 C 8.273438 22.472656 10.929688 23.613281 13.671875 23.8125 C 16.410156 24.019531 19.128906 23.539062 21.828125 22.375 C 24.535156 21.21875 27.125 19.664062 29.59375 17.71875 C 32.0625 15.769531 34.320312 13.726562 36.375 11.59375 C 38.4375 9.457031 40.1875 7.5 41.625 5.71875 Z M 41.625 5.71875 "/></g></g></g><g fill="#000000" fill-opacity="1"><g transform="translate(88.182258, 193.147768)"><g><path d="M 11.015625 -7.40625 C 10.265625 -6.675781 9.394531 -6.050781 8.40625 -5.53125 C 7.414062 -5.007812 6.582031 -4.664062 5.90625 -4.5 C 5.238281 -4.34375 4.550781 -4.253906 3.84375 -4.234375 C 2.707031 -4.179688 1.664062 -4.335938 0.71875 -4.703125 C -0.84375 -5.328125 -1.382812 -6.53125 -0.90625 -8.3125 C -0.457031 -9.84375 0.453125 -11.039062 1.828125 -11.90625 C 3.210938 -12.769531 4.640625 -13.1875 6.109375 -13.15625 C 6.109375 -13.15625 6.117188 -13.15625 6.140625 -13.15625 C 6.515625 -13.1875 6.867188 -13.160156 7.203125 -13.078125 C 7.773438 -12.878906 8.132812 -12.546875 8.28125 -12.078125 C 8.4375 -11.609375 8.335938 -11.09375 7.984375 -10.53125 C 7.160156 -9.28125 6.039062 -8.582031 4.625 -8.4375 C 3.675781 -8.351562 2.765625 -8.398438 1.890625 -8.578125 C 1.722656 -8.609375 1.570312 -8.5625 1.4375 -8.4375 C 1.3125 -8.320312 1.238281 -8.179688 1.21875 -8.015625 C 0.957031 -6.910156 1.296875 -6.203125 2.234375 -5.890625 C 3.398438 -5.492188 4.609375 -5.492188 5.859375 -5.890625 C 7.296875 -6.347656 8.664062 -7.195312 9.96875 -8.4375 C 11.269531 -9.6875 12.019531 -10.269531 12.21875 -10.1875 C 12.414062 -10.101562 12.476562 -9.863281 12.40625 -9.46875 C 12.226562 -8.832031 11.765625 -8.144531 11.015625 -7.40625 Z M 2.78125 -10.53125 C 2.707031 -10.4375 2.648438 -10.332031 2.609375 -10.21875 C 2.578125 -10.113281 2.625 -10.019531 2.75 -9.9375 C 3.195312 -9.675781 3.679688 -9.582031 4.203125 -9.65625 C 4.734375 -9.726562 5.179688 -9.925781 5.546875 -10.25 C 5.921875 -10.582031 6.082031 -10.984375 6.03125 -11.453125 C 5.988281 -11.628906 5.894531 -11.738281 5.75 -11.78125 C 5.613281 -11.820312 5.472656 -11.832031 5.328125 -11.8125 C 4.378906 -11.644531 3.53125 -11.21875 2.78125 -10.53125 Z M 2.78125 -10.53125 "/></g></g></g><g fill="#000000" fill-opacity="1"><g transform="translate(99.427436, 193.147768)"><g><path d="M 15.3125 -9.640625 C 15.507812 -9.378906 15.25 -8.90625 14.53125 -8.21875 C 13.8125 -7.539062 13.046875 -6.96875 12.234375 -6.5 C 11.421875 -6.039062 10.476562 -5.582031 9.40625 -5.125 C 8.695312 -4.8125 7.941406 -4.707031 7.140625 -4.8125 C 6.347656 -4.914062 5.953125 -5.398438 5.953125 -6.265625 C 5.953125 -7.128906 6.148438 -7.984375 6.546875 -8.828125 C 6.953125 -9.703125 7.039062 -10.148438 6.8125 -10.171875 C 6.582031 -10.203125 6.113281 -9.992188 5.40625 -9.546875 C 3.5625 -8.335938 1.847656 -6.953125 0.265625 -5.390625 C -0.148438 -4.878906 -0.691406 -4.597656 -1.359375 -4.546875 C -1.691406 -4.546875 -1.953125 -4.648438 -2.140625 -4.859375 C -2.328125 -5.066406 -2.347656 -5.296875 -2.203125 -5.546875 C -1.066406 -7.648438 0.078125 -9.722656 1.234375 -11.765625 C 1.492188 -12.191406 1.878906 -12.457031 2.390625 -12.5625 C 2.609375 -12.601562 2.8125 -12.535156 3 -12.359375 C 3.1875 -12.179688 3.28125 -11.984375 3.28125 -11.765625 C 3.257812 -11.554688 3.175781 -11.3125 3.03125 -11.03125 C 2.96875 -10.863281 2.90625 -10.703125 2.84375 -10.546875 C 2.789062 -10.390625 2.773438 -10.257812 2.796875 -10.15625 C 2.816406 -10.0625 2.894531 -10.03125 3.03125 -10.0625 C 3.226562 -10.164062 3.421875 -10.273438 3.609375 -10.390625 C 4.097656 -10.679688 4.570312 -10.953125 5.03125 -11.203125 C 5.425781 -11.441406 5.84375 -11.648438 6.28125 -11.828125 C 6.71875 -12.003906 7.175781 -12.125 7.65625 -12.1875 C 8.425781 -12.238281 8.972656 -12.066406 9.296875 -11.671875 C 9.617188 -11.273438 9.65625 -10.722656 9.40625 -10.015625 C 9.15625 -9.367188 8.882812 -8.726562 8.59375 -8.09375 C 8.25 -7.5 8.191406 -7.046875 8.421875 -6.734375 C 8.660156 -6.429688 9.738281 -6.789062 11.65625 -7.8125 L 13.109375 -8.65625 C 14.472656 -9.53125 15.207031 -9.859375 15.3125 -9.640625 Z M 15.3125 -9.640625 "/></g></g></g><g fill="#000000" fill-opacity="1"><g transform="translate(113.590183, 193.147768)"><g><path d="M 15.3125 -9.640625 C 15.507812 -9.378906 15.25 -8.90625 14.53125 -8.21875 C 13.8125 -7.539062 13.046875 -6.96875 12.234375 -6.5 C 11.421875 -6.039062 10.476562 -5.582031 9.40625 -5.125 C 8.695312 -4.8125 7.941406 -4.707031 7.140625 -4.8125 C 6.347656 -4.914062 5.953125 -5.398438 5.953125 -6.265625 C 5.953125 -7.128906 6.148438 -7.984375 6.546875 -8.828125 C 6.953125 -9.703125 7.039062 -10.148438 6.8125 -10.171875 C 6.582031 -10.203125 6.113281 -9.992188 5.40625 -9.546875 C 3.5625 -8.335938 1.847656 -6.953125 0.265625 -5.390625 C -0.148438 -4.878906 -0.691406 -4.597656 -1.359375 -4.546875 C -1.691406 -4.546875 -1.953125 -4.648438 -2.140625 -4.859375 C -2.328125 -5.066406 -2.347656 -5.296875 -2.203125 -5.546875 C -1.066406 -7.648438 0.078125 -9.722656 1.234375 -11.765625 C 1.492188 -12.191406 1.878906 -12.457031 2.390625 -12.5625 C 2.609375 -12.601562 2.8125 -12.535156 3 -12.359375 C 3.1875 -12.179688 3.28125 -11.984375 3.28125 -11.765625 C 3.257812 -11.554688 3.175781 -11.3125 3.03125 -11.03125 C 2.96875 -10.863281 2.90625 -10.703125 2.84375 -10.546875 C 2.789062 -10.390625 2.773438 -10.257812 2.796875 -10.15625 C 2.816406 -10.0625 2.894531 -10.03125 3.03125 -10.0625 C 3.226562 -10.164062 3.421875 -10.273438 3.609375 -10.390625 C 4.097656 -10.679688 4.570312 -10.953125 5.03125 -11.203125 C 5.425781 -11.441406 5.84375 -11.648438 6.28125 -11.828125 C 6.71875 -12.003906 7.175781 -12.125 7.65625 -12.1875 C 8.425781 -12.238281 8.972656 -12.066406 9.296875 -11.671875 C 9.617188 -11.273438 9.65625 -10.722656 9.40625 -10.015625 C 9.15625 -9.367188 8.882812 -8.726562 8.59375 -8.09375 C 8.25 -7.5 8.191406 -7.046875 8.421875 -6.734375 C 8.660156 -6.429688 9.738281 -6.789062 11.65625 -7.8125 L 13.109375 -8.65625 C 14.472656 -9.53125 15.207031 -9.859375 15.3125 -9.640625 Z M 15.3125 -9.640625 "/></g></g></g><g fill="#000000" fill-opacity="1"><g transform="translate(127.75293, 193.147768)"><g><path d="M 7.671875 -8.140625 C 6.984375 -7.328125 6.171875 -6.578125 5.234375 -5.890625 C 4.296875 -5.210938 3.234375 -4.753906 2.046875 -4.515625 C 0.859375 -4.273438 -0.0625 -4.359375 -0.71875 -4.765625 C -1.375 -5.179688 -1.5 -6.097656 -1.09375 -7.515625 C -0.582031 -8.984375 0.125 -10.382812 1.03125 -11.71875 C 1.226562 -12 1.519531 -12.195312 1.90625 -12.3125 C 2.195312 -12.375 2.445312 -12.320312 2.65625 -12.15625 C 2.863281 -12 2.945312 -11.800781 2.90625 -11.5625 C 2.707031 -11.09375 2.488281 -10.625 2.25 -10.15625 C 2.019531 -9.695312 1.867188 -9.394531 1.796875 -9.25 C 1.347656 -8.425781 1.03125 -7.566406 0.84375 -6.671875 C 0.84375 -6.148438 1.53125 -6.113281 2.90625 -6.5625 C 4.289062 -7.019531 5.632812 -7.847656 6.9375 -9.046875 C 8.238281 -10.253906 8.859375 -10.609375 8.796875 -10.109375 C 8.742188 -9.617188 8.367188 -8.960938 7.671875 -8.140625 Z M 4.3125 -14.609375 C 4.25 -14.554688 4.113281 -14.492188 3.90625 -14.421875 C 3.707031 -14.347656 3.492188 -14.296875 3.265625 -14.265625 C 3.046875 -14.234375 2.867188 -14.269531 2.734375 -14.375 C 2.609375 -14.476562 2.601562 -14.6875 2.71875 -15 C 2.925781 -15.539062 3.140625 -16.015625 3.359375 -16.421875 C 3.585938 -16.828125 3.882812 -17.273438 4.25 -17.765625 C 4.476562 -17.984375 4.726562 -18.097656 5 -18.109375 C 5.269531 -18.128906 5.492188 -18.054688 5.671875 -17.890625 C 5.859375 -17.734375 5.914062 -17.515625 5.84375 -17.234375 C 5.550781 -16.222656 5.039062 -15.347656 4.3125 -14.609375 Z M 4.3125 -14.609375 "/></g></g></g><g fill="#000000" fill-opacity="1"><g transform="translate(135.288358, 193.147768)"><g><path d="M 2.625 -8.703125 C 2.125 -7.421875 1.59375 -6.144531 1.03125 -4.875 C 0.144531 -2.832031 -0.859375 -0.847656 -1.984375 1.078125 C -2.785156 2.429688 -3.757812 3.390625 -4.90625 3.953125 C -6.050781 4.523438 -7.332031 4.796875 -8.75 4.765625 C -9.976562 4.742188 -11.003906 4.304688 -11.828125 3.453125 C -11.929688 3.335938 -12.003906 3.207031 -12.046875 3.0625 C -12.085938 2.925781 -12.066406 2.785156 -11.984375 2.640625 C -11.878906 2.503906 -11.738281 2.425781 -11.5625 2.40625 C -11.394531 2.394531 -11.238281 2.414062 -11.09375 2.46875 C -10.894531 2.53125 -10.695312 2.625 -10.5 2.75 C -10.351562 2.820312 -10.207031 2.890625 -10.0625 2.953125 C -9.070312 3.378906 -8.113281 3.453125 -7.1875 3.171875 C -6.269531 2.890625 -5.476562 2.25 -4.8125 1.25 C -4.125 0.257812 -3.523438 -0.757812 -3.015625 -1.8125 C -2.984375 -1.863281 -2.957031 -1.90625 -2.9375 -1.9375 C -1.800781 -4.144531 -0.8125 -6.398438 0.03125 -8.703125 C 0.175781 -9.066406 0.203125 -9.328125 0.109375 -9.484375 C 0.015625 -9.640625 -0.21875 -9.742188 -0.59375 -9.796875 C -0.757812 -9.835938 -0.925781 -9.859375 -1.09375 -9.859375 C -1.238281 -9.878906 -1.382812 -9.890625 -1.53125 -9.890625 C -1.695312 -9.921875 -1.835938 -9.976562 -1.953125 -10.0625 C -2.066406 -10.144531 -2.097656 -10.289062 -2.046875 -10.5 C -2.003906 -10.664062 -1.910156 -10.789062 -1.765625 -10.875 C -1.628906 -10.957031 -1.476562 -11.007812 -1.3125 -11.03125 C -1.289062 -11.03125 -1.253906 -11.03125 -1.203125 -11.03125 C -0.773438 -11.125 -0.347656 -11.179688 0.078125 -11.203125 C 0.472656 -11.203125 0.769531 -11.300781 0.96875 -11.5 C 1.175781 -11.707031 1.347656 -11.988281 1.484375 -12.34375 C 2.285156 -14.5625 3.125 -16.78125 4 -19 C 4.925781 -21.4375 6.03125 -23.8125 7.3125 -26.125 C 7.84375 -27.1875 8.535156 -28.125 9.390625 -28.9375 C 9.835938 -29.332031 10.316406 -29.640625 10.828125 -29.859375 C 11.347656 -30.085938 11.90625 -30.164062 12.5 -30.09375 C 12.613281 -30.09375 12.71875 -30.054688 12.8125 -29.984375 C 12.914062 -29.910156 12.992188 -29.828125 13.046875 -29.734375 C 13.140625 -29.546875 13.117188 -29.398438 12.984375 -29.296875 C 12.859375 -29.191406 12.722656 -29.113281 12.578125 -29.0625 C 11.898438 -28.78125 11.359375 -28.390625 10.953125 -27.890625 C 10.546875 -27.398438 10.179688 -26.859375 9.859375 -26.265625 C 8.578125 -23.878906 7.453125 -21.457031 6.484375 -19 C 5.515625 -16.550781 4.601562 -14.070312 3.75 -11.5625 C 4.3125 -11.238281 4.890625 -11.078125 5.484375 -11.078125 C 5.742188 -11.046875 6.015625 -11.003906 6.296875 -10.953125 C 6.347656 -10.929688 6.421875 -10.921875 6.515625 -10.921875 C 6.648438 -10.878906 6.789062 -10.832031 6.9375 -10.78125 C 6.988281 -10.757812 7.039062 -10.71875 7.09375 -10.65625 C 7.15625 -10.601562 7.175781 -10.550781 7.15625 -10.5 C 7.15625 -10.40625 7.125 -10.320312 7.0625 -10.25 C 7 -10.175781 6.9375 -10.128906 6.875 -10.109375 C 6.207031 -9.898438 5.53125 -9.816406 4.84375 -9.859375 C 4.675781 -9.859375 4.492188 -9.859375 4.296875 -9.859375 C 3.460938 -9.878906 2.90625 -9.492188 2.625 -8.703125 Z M 2.625 -8.703125 "/></g></g></g><g fill="#000000" fill-opacity="1"><g transform="translate(142.765828, 193.147768)"><g><path d="M 11.015625 -7.40625 C 10.265625 -6.675781 9.394531 -6.050781 8.40625 -5.53125 C 7.414062 -5.007812 6.582031 -4.664062 5.90625 -4.5 C 5.238281 -4.34375 4.550781 -4.253906 3.84375 -4.234375 C 2.707031 -4.179688 1.664062 -4.335938 0.71875 -4.703125 C -0.84375 -5.328125 -1.382812 -6.53125 -0.90625 -8.3125 C -0.457031 -9.84375 0.453125 -11.039062 1.828125 -11.90625 C 3.210938 -12.769531 4.640625 -13.1875 6.109375 -13.15625 C 6.109375 -13.15625 6.117188 -13.15625 6.140625 -13.15625 C 6.515625 -13.1875 6.867188 -13.160156 7.203125 -13.078125 C 7.773438 -12.878906 8.132812 -12.546875 8.28125 -12.078125 C 8.4375 -11.609375 8.335938 -11.09375 7.984375 -10.53125 C 7.160156 -9.28125 6.039062 -8.582031 4.625 -8.4375 C 3.675781 -8.351562 2.765625 -8.398438 1.890625 -8.578125 C 1.722656 -8.609375 1.570312 -8.5625 1.4375 -8.4375 C 1.3125 -8.320312 1.238281 -8.179688 1.21875 -8.015625 C 0.957031 -6.910156 1.296875 -6.203125 2.234375 -5.890625 C 3.398438 -5.492188 4.609375 -5.492188 5.859375 -5.890625 C 7.296875 -6.347656 8.664062 -7.195312 9.96875 -8.4375 C 11.269531 -9.6875 12.019531 -10.269531 12.21875 -10.1875 C 12.414062 -10.101562 12.476562 -9.863281 12.40625 -9.46875 C 12.226562 -8.832031 11.765625 -8.144531 11.015625 -7.40625 Z M 2.78125 -10.53125 C 2.707031 -10.4375 2.648438 -10.332031 2.609375 -10.21875 C 2.578125 -10.113281 2.625 -10.019531 2.75 -9.9375 C 3.195312 -9.675781 3.679688 -9.582031 4.203125 -9.65625 C 4.734375 -9.726562 5.179688 -9.925781 5.546875 -10.25 C 5.921875 -10.582031 6.082031 -10.984375 6.03125 -11.453125 C 5.988281 -11.628906 5.894531 -11.738281 5.75 -11.78125 C 5.613281 -11.820312 5.472656 -11.832031 5.328125 -11.8125 C 4.378906 -11.644531 3.53125 -11.21875 2.78125 -10.53125 Z M 2.78125 -10.53125 "/></g></g></g><g fill="#000000" fill-opacity="1"><g transform="translate(154.011005, 193.147768)"><g><path d="M 9.28125 -11.859375 C 9.164062 -10.972656 8.742188 -10.394531 8.015625 -10.125 C 7.296875 -9.851562 7.0625 -10.207031 7.3125 -11.1875 C 7.5625 -12.164062 7.117188 -12.410156 5.984375 -11.921875 C 4.859375 -11.441406 3.925781 -10.835938 3.1875 -10.109375 C 2.050781 -8.953125 1.046875 -7.703125 0.171875 -6.359375 C 0.078125 -6.242188 0.0078125 -6.144531 -0.03125 -6.0625 C -0.289062 -5.6875 -0.550781 -5.332031 -0.8125 -5 C -0.976562 -4.769531 -1.171875 -4.625 -1.390625 -4.5625 C -1.617188 -4.507812 -1.851562 -4.503906 -2.09375 -4.546875 C -2.3125 -4.566406 -2.476562 -4.644531 -2.59375 -4.78125 C -2.707031 -4.925781 -2.71875 -5.097656 -2.625 -5.296875 C -2.488281 -5.640625 -2.320312 -5.992188 -2.125 -6.359375 C -0.96875 -8.503906 0.207031 -10.660156 1.40625 -12.828125 C 1.4375 -12.859375 1.453125 -12.882812 1.453125 -12.90625 C 1.617188 -13.238281 1.816406 -13.550781 2.046875 -13.84375 C 2.304688 -14.125 2.601562 -14.238281 2.9375 -14.1875 C 3.269531 -14.132812 3.492188 -13.929688 3.609375 -13.578125 C 3.753906 -13.128906 3.878906 -12.875 3.984375 -12.8125 C 4.085938 -12.757812 4.316406 -12.804688 4.671875 -12.953125 C 5.453125 -13.234375 6.207031 -13.429688 6.9375 -13.546875 C 7.675781 -13.660156 8.28125 -13.628906 8.75 -13.453125 C 9.21875 -13.285156 9.394531 -12.753906 9.28125 -11.859375 Z M 9.28125 -11.859375 "/></g></g></g><g fill="#000000" fill-opacity="1"><g transform="translate(163.671811, 193.147768)"><g/></g></g><g fill="#000000" fill-opacity="1"><g transform="translate(178.278949, 193.147768)"><g><path d="M 84.8125 -46.625 C 84.726562 -46.394531 84.640625 -46.164062 84.546875 -45.9375 C 83.640625 -43.59375 82.664062 -41.285156 81.625 -39.015625 C 76.238281 -27.816406 70.457031 -16.988281 64.28125 -6.53125 C 62.269531 -3.15625 60.210938 0.160156 58.109375 3.421875 C 56.015625 6.679688 53.898438 9.925781 51.765625 13.15625 C 51.265625 13.914062 50.757812 14.675781 50.25 15.4375 C 50.21875 15.5 50.191406 15.546875 50.171875 15.578125 C 50.054688 15.804688 49.921875 16 49.765625 16.15625 C 49.609375 16.3125 49.398438 16.390625 49.140625 16.390625 C 49.023438 16.390625 48.898438 16.359375 48.765625 16.296875 C 48.640625 16.242188 48.539062 16.171875 48.46875 16.078125 C 48.40625 16.003906 48.359375 15.878906 48.328125 15.703125 C 48.304688 15.523438 48.320312 15.382812 48.375 15.28125 C 48.71875 14.539062 49.101562 13.832031 49.53125 13.15625 C 50.476562 11.601562 51.4375 10.046875 52.40625 8.484375 C 54.226562 5.585938 56.015625 2.679688 57.765625 -0.234375 C 61.648438 -6.722656 65.363281 -13.347656 68.90625 -20.109375 C 72.457031 -26.878906 75.921875 -33.71875 79.296875 -40.625 C 80.648438 -43.289062 81.765625 -46.144531 82.640625 -49.1875 C 82.816406 -49.707031 82.953125 -50.25 83.046875 -50.8125 C 83.140625 -51.382812 83.1875 -51.972656 83.1875 -52.578125 C 83.101562 -53.878906 82.550781 -54.445312 81.53125 -54.28125 C 80.632812 -54.101562 79.785156 -53.820312 78.984375 -53.4375 C 77.085938 -52.519531 75.21875 -51.507812 73.375 -50.40625 C 63.476562 -44.394531 54.46875 -36.941406 46.34375 -28.046875 C 46.226562 -27.898438 46.097656 -27.753906 45.953125 -27.609375 C 43.148438 -24.554688 40.363281 -21.476562 37.59375 -18.375 C 34.832031 -15.269531 32.148438 -12.078125 29.546875 -8.796875 C 29.003906 -8.109375 28.4375 -7.46875 27.84375 -6.875 C 27.21875 -6.21875 26.46875 -5.960938 25.59375 -6.109375 C 25.21875 -6.160156 24.910156 -6.34375 24.671875 -6.65625 C 24.429688 -6.96875 24.335938 -7.335938 24.390625 -7.765625 C 24.566406 -8.929688 24.820312 -10.050781 25.15625 -11.125 C 26.207031 -14.550781 27.316406 -17.9375 28.484375 -21.28125 C 28.648438 -21.789062 28.804688 -22.285156 28.953125 -22.765625 C 29.253906 -24.015625 29.691406 -25.164062 30.265625 -26.21875 C 30.265625 -26.25 30.25 -26.265625 30.21875 -26.265625 C 30.082031 -26.335938 29.941406 -26.394531 29.796875 -26.4375 C 29.660156 -26.488281 29.519531 -26.441406 29.375 -26.296875 C 28.851562 -25.734375 28.359375 -25.144531 27.890625 -24.53125 C 23.972656 -19.21875 20.09375 -13.859375 16.25 -8.453125 C 12.414062 -3.054688 8.664062 2.425781 5 8 C 4.695312 8.539062 4.351562 8.984375 3.96875 9.328125 C 3.59375 9.671875 3.085938 9.78125 2.453125 9.65625 C 2.171875 9.582031 1.953125 9.410156 1.796875 9.140625 C 1.640625 8.867188 1.609375 8.601562 1.703125 8.34375 C 2.035156 7.582031 2.398438 6.863281 2.796875 6.1875 C 3.929688 4.226562 5.054688 2.269531 6.171875 0.3125 C 8.398438 -3.5625 10.609375 -7.457031 12.796875 -11.375 C 16.191406 -17.382812 19.222656 -23.707031 21.890625 -30.34375 C 22.929688 -32.894531 23.785156 -35.570312 24.453125 -38.375 C 24.804688 -39.875 24.957031 -41.4375 24.90625 -43.0625 C 24.738281 -45.65625 23.875 -47.515625 22.3125 -48.640625 C 20.757812 -49.765625 18.710938 -50.296875 16.171875 -50.234375 C 13.640625 -50.179688 10.828125 -49.664062 7.734375 -48.6875 C 4.640625 -47.707031 1.472656 -46.410156 -1.765625 -44.796875 C -5.015625 -43.179688 -8.144531 -41.398438 -11.15625 -39.453125 C -14.175781 -37.515625 -16.863281 -35.546875 -19.21875 -33.546875 C -21.570312 -31.546875 -23.40625 -29.671875 -24.71875 -27.921875 C -26.09375 -25.992188 -27.265625 -23.867188 -28.234375 -21.546875 C -28.722656 -20.441406 -29.003906 -19.238281 -29.078125 -17.9375 C -29.109375 -17.675781 -29.238281 -17.476562 -29.46875 -17.34375 C -29.695312 -17.21875 -29.957031 -17.179688 -30.25 -17.234375 C -30.695312 -17.378906 -30.976562 -17.734375 -31.09375 -18.296875 C -31.164062 -19.046875 -31.109375 -19.726562 -30.921875 -20.34375 C -30.492188 -21.90625 -29.925781 -23.382812 -29.21875 -24.78125 C -27.914062 -27.207031 -25.9375 -29.691406 -23.28125 -32.234375 C -20.632812 -34.773438 -17.546875 -37.207031 -14.015625 -39.53125 C -10.484375 -41.851562 -6.796875 -43.925781 -2.953125 -45.75 C 0.878906 -47.570312 4.628906 -48.988281 8.296875 -50 C 11.972656 -51.007812 15.285156 -51.460938 18.234375 -51.359375 C 21.179688 -51.265625 23.503906 -50.457031 25.203125 -48.9375 C 26.898438 -47.425781 27.722656 -45.039062 27.671875 -41.78125 C 27.578125 -39.675781 27.25 -37.679688 26.6875 -35.796875 C 25.863281 -33.003906 24.910156 -30.3125 23.828125 -27.71875 C 22.753906 -25.125 21.613281 -22.582031 20.40625 -20.09375 C 20.03125 -19.320312 19.945312 -18.945312 20.15625 -18.96875 C 20.375 -18.988281 20.695312 -19.28125 21.125 -19.84375 C 22.65625 -21.882812 24.1875 -23.894531 25.71875 -25.875 C 26.757812 -27.195312 27.820312 -28.5 28.90625 -29.78125 C 29.050781 -29.957031 29.191406 -30.128906 29.328125 -30.296875 C 29.953125 -31.054688 30.703125 -31.566406 31.578125 -31.828125 C 32.234375 -31.972656 32.785156 -31.828125 33.234375 -31.390625 C 33.691406 -30.953125 33.847656 -30.289062 33.703125 -29.40625 C 33.679688 -29.320312 33.65625 -29.234375 33.625 -29.140625 C 33.394531 -28.003906 33.125 -26.90625 32.8125 -25.84375 C 31.988281 -23.226562 31.140625 -20.628906 30.265625 -18.046875 C 29.835938 -16.722656 29.410156 -15.378906 28.984375 -14.015625 C 28.898438 -13.816406 28.769531 -13.460938 28.59375 -12.953125 C 28.425781 -12.492188 28.265625 -12.046875 28.109375 -11.609375 C 27.960938 -11.171875 27.84375 -10.835938 27.75 -10.609375 C 27.863281 -10.703125 28.914062 -11.878906 30.90625 -14.140625 C 33.59375 -17.234375 36.78125 -20.851562 40.46875 -25 C 44.15625 -29.15625 47.046875 -32.328125 49.140625 -34.515625 C 53.023438 -38.421875 57.113281 -41.972656 61.40625 -45.171875 C 65.695312 -48.367188 70.148438 -51.265625 74.765625 -53.859375 C 75.898438 -54.453125 77.066406 -54.988281 78.265625 -55.46875 C 78.523438 -55.550781 78.773438 -55.648438 79.015625 -55.765625 C 80.148438 -56.222656 81.359375 -56.394531 82.640625 -56.28125 C 85.085938 -56.039062 86.207031 -54.492188 86 -51.640625 C 85.851562 -49.859375 85.457031 -48.1875 84.8125 -46.625 Z M 30.125 -26.375 C 30.1875 -26.320312 30.234375 -26.285156 30.265625 -26.265625 C 30.265625 -26.265625 30.265625 -26.25 30.265625 -26.21875 C 30.285156 -26.21875 30.296875 -26.234375 30.296875 -26.265625 C 30.242188 -26.285156 30.1875 -26.320312 30.125 -26.375 Z M 30.125 -26.375 "/></g></g></g><g fill="#000000" fill-opacity="1"><g transform="translate(251.102108, 193.147768)"><g><path d="M 14.015625 -9.84375 C 14.316406 -9.664062 14.34375 -9.242188 14.09375 -8.578125 C 13.71875 -8.085938 13.316406 -7.628906 12.890625 -7.203125 C 12.460938 -6.785156 12 -6.40625 11.5 -6.0625 C 11.457031 -6.0625 11.4375 -6.050781 11.4375 -6.03125 C 11.101562 -5.800781 10.75 -5.601562 10.375 -5.4375 C 7.300781 -4.320312 5.726562 -4.96875 5.65625 -7.375 C 4.40625 -6.300781 3.570312 -5.640625 3.15625 -5.390625 C 2.132812 -4.785156 1.03125 -4.515625 -0.15625 -4.578125 C -1.03125 -4.628906 -1.625 -4.894531 -1.9375 -5.375 C -2.257812 -5.863281 -2.234375 -6.519531 -1.859375 -7.34375 C -1.285156 -8.644531 -0.476562 -9.804688 0.5625 -10.828125 C 1.78125 -11.953125 3.140625 -12.859375 4.640625 -13.546875 C 5.441406 -13.941406 6.28125 -14.097656 7.15625 -14.015625 C 8.03125 -13.960938 8.554688 -13.460938 8.734375 -12.515625 C 8.804688 -12.234375 8.734375 -11.984375 8.515625 -11.765625 C 8.234375 -11.503906 7.90625 -11.445312 7.53125 -11.59375 C 7.507812 -11.59375 7.472656 -11.597656 7.421875 -11.609375 C 7.378906 -11.628906 7.347656 -11.648438 7.328125 -11.671875 C 6.953125 -12.191406 6.570312 -12.40625 6.1875 -12.3125 C 5.8125 -12.226562 5.410156 -12.0625 4.984375 -11.8125 C 3.003906 -10.644531 1.53125 -9.023438 0.5625 -6.953125 C 0.507812 -6.867188 0.472656 -6.769531 0.453125 -6.65625 C 0.441406 -6.550781 0.476562 -6.460938 0.5625 -6.390625 C 0.789062 -6.316406 1.046875 -6.332031 1.328125 -6.4375 C 1.617188 -6.550781 1.90625 -6.710938 2.1875 -6.921875 C 2.46875 -7.140625 2.707031 -7.316406 2.90625 -7.453125 C 2.925781 -7.492188 2.9375 -7.515625 2.9375 -7.515625 C 3.875 -8.304688 4.796875 -9.113281 5.703125 -9.9375 C 6.097656 -10.363281 6.59375 -10.597656 7.1875 -10.640625 C 8.039062 -10.640625 8.394531 -10.265625 8.25 -9.515625 C 8.175781 -9.222656 8.09375 -8.9375 8 -8.65625 C 7.664062 -7.4375 7.648438 -6.71875 7.953125 -6.5 C 8.265625 -6.289062 8.738281 -6.289062 9.375 -6.5 C 10.019531 -6.71875 10.660156 -7.125 11.296875 -7.71875 C 11.929688 -8.320312 12.46875 -8.867188 12.90625 -9.359375 C 13.34375 -9.859375 13.710938 -10.019531 14.015625 -9.84375 Z M 14.015625 -9.84375 "/></g></g></g><g fill="#000000" fill-opacity="1"><g transform="translate(263.912355, 193.147768)"><g><path d="M 13.9375 -10.0625 C 14 -10.0625 14.070312 -10.046875 14.15625 -10.015625 C 14.238281 -9.984375 14.304688 -9.941406 14.359375 -9.890625 C 14.535156 -9.722656 14.554688 -9.523438 14.421875 -9.296875 C 14.234375 -9.097656 14.054688 -8.929688 13.890625 -8.796875 C 12.898438 -7.878906 11.800781 -7.113281 10.59375 -6.5 C 8.6875 -5.53125 6.585938 -5.03125 4.296875 -5 C 3.441406 -4.976562 2.5625 -5.125 1.65625 -5.4375 C 0.0078125 -6.070312 -0.65625 -7.257812 -0.34375 -9 C 0.03125 -10.613281 0.9375 -11.953125 2.375 -13.015625 C 3.820312 -14.078125 5.367188 -14.535156 7.015625 -14.390625 C 7.328125 -14.335938 7.632812 -14.269531 7.9375 -14.1875 C 8.226562 -14.070312 8.441406 -13.898438 8.578125 -13.671875 C 8.722656 -13.441406 8.738281 -13.257812 8.625 -13.125 C 8.3125 -12.789062 7.957031 -12.707031 7.5625 -12.875 C 6.96875 -13.125 6.421875 -13.191406 5.921875 -13.078125 C 5.421875 -12.960938 4.921875 -12.691406 4.421875 -12.265625 C 3.929688 -11.898438 3.398438 -11.359375 2.828125 -10.640625 C 2.265625 -9.929688 1.90625 -9.21875 1.75 -8.5 C 1.601562 -7.78125 1.925781 -7.195312 2.71875 -6.75 C 3.625 -6.34375 4.546875 -6.242188 5.484375 -6.453125 C 7.828125 -6.929688 10.003906 -7.820312 12.015625 -9.125 C 12.203125 -9.207031 12.363281 -9.3125 12.5 -9.4375 C 12.71875 -9.601562 12.941406 -9.738281 13.171875 -9.84375 C 13.398438 -9.957031 13.65625 -10.03125 13.9375 -10.0625 Z M 13.9375 -10.0625 "/></g></g></g><g fill="#000000" fill-opacity="1"><g transform="translate(276.799864, 193.147768)"><g><path d="M 76.53125 7.671875 C 76.550781 7.671875 76.59375 7.671875 76.65625 7.671875 C 76.851562 7.691406 77.046875 7.734375 77.234375 7.796875 C 77.421875 7.859375 77.582031 7.972656 77.71875 8.140625 C 77.769531 8.191406 77.8125 8.257812 77.84375 8.34375 C 77.882812 8.4375 77.882812 8.519531 77.84375 8.59375 C 77.8125 8.6875 77.757812 8.769531 77.6875 8.84375 C 77.625 8.914062 77.566406 8.953125 77.515625 8.953125 C 77.160156 9.003906 76.804688 9.003906 76.453125 8.953125 C 67.804688 7.160156 58.222656 6.003906 47.703125 5.484375 C 37.179688 4.960938 27.476562 5.148438 18.59375 6.046875 C 18.1875 6.078125 17.800781 6.125 17.4375 6.1875 C 17.09375 6.207031 16.769531 6.234375 16.46875 6.265625 C 15.476562 6.398438 14.628906 6.835938 13.921875 7.578125 C 12.316406 9.316406 10.554688 10.847656 8.640625 12.171875 C 7.128906 13.191406 5.46875 13.757812 3.65625 13.875 C 2.914062 13.925781 2.207031 13.8125 1.53125 13.53125 C 0.882812 13.25 0.46875 12.820312 0.28125 12.25 C 0.09375 11.6875 0.171875 11.082031 0.515625 10.4375 C 1.085938 9.519531 2.023438 8.734375 3.328125 8.078125 C 4.628906 7.429688 6.015625 6.898438 7.484375 6.484375 C 8.960938 6.078125 10.210938 5.773438 11.234375 5.578125 C 12.597656 5.328125 13.703125 4.664062 14.546875 3.59375 C 18.660156 -1.40625 22.613281 -7.0625 26.40625 -13.375 C 30.195312 -19.695312 33.691406 -26.203125 36.890625 -32.890625 C 40.097656 -39.578125 42.851562 -45.976562 45.15625 -52.09375 C 45.238281 -52.414062 45.375 -52.695312 45.5625 -52.9375 C 45.75 -53.175781 46.019531 -53.34375 46.375 -53.4375 C 46.726562 -53.488281 47.03125 -53.421875 47.28125 -53.234375 C 47.53125 -53.046875 47.628906 -52.785156 47.578125 -52.453125 C 47.460938 -51.648438 47.265625 -50.867188 46.984375 -50.109375 C 44.773438 -44.296875 42.160156 -38.242188 39.140625 -31.953125 C 36.117188 -25.660156 32.828125 -19.523438 29.265625 -13.546875 C 25.710938 -7.566406 22.050781 -2.15625 18.28125 2.6875 C 17.5 3.675781 17.257812 4.25 17.5625 4.40625 C 17.875 4.570312 18.484375 4.566406 19.390625 4.390625 C 19.585938 4.359375 19.785156 4.332031 19.984375 4.3125 C 27.066406 3.507812 34.414062 3.265625 42.03125 3.578125 C 49.644531 3.898438 57.148438 4.566406 64.546875 5.578125 C 67.148438 5.953125 69.703125 6.378906 72.203125 6.859375 C 73.671875 7.140625 75.113281 7.410156 76.53125 7.671875 Z M 4.71875 12.046875 C 6.882812 11.160156 8.675781 9.773438 10.09375 7.890625 C 7.757812 8.054688 5.679688 8.773438 3.859375 10.046875 C 3.296875 10.472656 2.960938 10.882812 2.859375 11.28125 C 2.765625 11.6875 2.878906 11.976562 3.203125 12.15625 C 3.535156 12.332031 4.039062 12.296875 4.71875 12.046875 Z M 4.71875 12.046875 "/></g></g></g><g fill="#000000" fill-opacity="1"><g transform="translate(312.56416, 193.147768)"><g><path d="M 11.015625 -7.40625 C 10.265625 -6.675781 9.394531 -6.050781 8.40625 -5.53125 C 7.414062 -5.007812 6.582031 -4.664062 5.90625 -4.5 C 5.238281 -4.34375 4.550781 -4.253906 3.84375 -4.234375 C 2.707031 -4.179688 1.664062 -4.335938 0.71875 -4.703125 C -0.84375 -5.328125 -1.382812 -6.53125 -0.90625 -8.3125 C -0.457031 -9.84375 0.453125 -11.039062 1.828125 -11.90625 C 3.210938 -12.769531 4.640625 -13.1875 6.109375 -13.15625 C 6.109375 -13.15625 6.117188 -13.15625 6.140625 -13.15625 C 6.515625 -13.1875 6.867188 -13.160156 7.203125 -13.078125 C 7.773438 -12.878906 8.132812 -12.546875 8.28125 -12.078125 C 8.4375 -11.609375 8.335938 -11.09375 7.984375 -10.53125 C 7.160156 -9.28125 6.039062 -8.582031 4.625 -8.4375 C 3.675781 -8.351562 2.765625 -8.398438 1.890625 -8.578125 C 1.722656 -8.609375 1.570312 -8.5625 1.4375 -8.4375 C 1.3125 -8.320312 1.238281 -8.179688 1.21875 -8.015625 C 0.957031 -6.910156 1.296875 -6.203125 2.234375 -5.890625 C 3.398438 -5.492188 4.609375 -5.492188 5.859375 -5.890625 C 7.296875 -6.347656 8.664062 -7.195312 9.96875 -8.4375 C 11.269531 -9.6875 12.019531 -10.269531 12.21875 -10.1875 C 12.414062 -10.101562 12.476562 -9.863281 12.40625 -9.46875 C 12.226562 -8.832031 11.765625 -8.144531 11.015625 -7.40625 Z M 2.78125 -10.53125 C 2.707031 -10.4375 2.648438 -10.332031 2.609375 -10.21875 C 2.578125 -10.113281 2.625 -10.019531 2.75 -9.9375 C 3.195312 -9.675781 3.679688 -9.582031 4.203125 -9.65625 C 4.734375 -9.726562 5.179688 -9.925781 5.546875 -10.25 C 5.921875 -10.582031 6.082031 -10.984375 6.03125 -11.453125 C 5.988281 -11.628906 5.894531 -11.738281 5.75 -11.78125 C 5.613281 -11.820312 5.472656 -11.832031 5.328125 -11.8125 C 4.378906 -11.644531 3.53125 -11.21875 2.78125 -10.53125 Z M 2.78125 -10.53125 "/></g></g></g><g fill="#000000" fill-opacity="1"><g transform="translate(323.809325, 193.147768)"><g><path d="M 3.078125 -4.578125 L 3.015625 -4.578125 C 1.148438 -4.609375 -0.078125 -5.023438 -0.671875 -5.828125 C -1.265625 -6.628906 -1.238281 -7.703125 -0.59375 -9.046875 C -0.0507812 -10.066406 0.628906 -10.957031 1.453125 -11.71875 C 1.734375 -11.96875 2.019531 -12.171875 2.3125 -12.328125 C 2.613281 -12.484375 2.953125 -12.5625 3.328125 -12.5625 C 3.546875 -12.601562 3.796875 -12.566406 4.078125 -12.453125 C 4.171875 -12.421875 4.257812 -12.382812 4.34375 -12.34375 C 4.5625 -12.382812 4.773438 -12.457031 4.984375 -12.5625 C 5.035156 -12.601562 5.109375 -12.632812 5.203125 -12.65625 C 5.628906 -12.820312 6.078125 -12.894531 6.546875 -12.875 C 6.742188 -12.875 6.945312 -12.875 7.15625 -12.875 C 7.914062 -12.757812 8.488281 -12.4375 8.875 -11.90625 C 9.257812 -11.382812 9.394531 -10.753906 9.28125 -10.015625 C 9.207031 -9.554688 9.0625 -9.128906 8.84375 -8.734375 C 7.363281 -6.078125 5.476562 -4.691406 3.1875 -4.578125 Z M 6.125 -11.5 C 5.101562 -11.539062 4.195312 -11.25 3.40625 -10.625 C 2.613281 -10 2.023438 -9.28125 1.640625 -8.46875 C 1.253906 -7.65625 1.144531 -6.988281 1.3125 -6.46875 C 1.488281 -5.945312 2.03125 -5.800781 2.9375 -6.03125 C 3.957031 -6.34375 4.851562 -6.921875 5.625 -7.765625 C 6.40625 -8.617188 6.882812 -9.425781 7.0625 -10.1875 C 7.238281 -10.957031 6.925781 -11.394531 6.125 -11.5 Z M 6.125 -11.5 "/></g></g></g><g fill="#000000" fill-opacity="1"><g transform="translate(334.069094, 193.147768)"><g><path d="M 17.15625 -10.171875 C 17.425781 -10.097656 17.566406 -10 17.578125 -9.875 C 17.597656 -9.75 17.609375 -9.6875 17.609375 -9.6875 C 17.296875 -9.144531 16.941406 -8.644531 16.546875 -8.1875 C 15.628906 -7.175781 14.566406 -6.367188 13.359375 -5.765625 C 12.765625 -5.421875 12.09375 -5.238281 11.34375 -5.21875 C 9.613281 -5.1875 8.820312 -6.023438 8.96875 -7.734375 C 9.03125 -8.085938 9.113281 -8.441406 9.21875 -8.796875 C 9.28125 -8.960938 9.328125 -9.128906 9.359375 -9.296875 C 9.523438 -9.910156 9.570312 -10.253906 9.5 -10.328125 C 9.425781 -10.398438 9.222656 -10.222656 8.890625 -9.796875 C 8.796875 -9.722656 8.710938 -9.640625 8.640625 -9.546875 C 8.117188 -8.929688 7.585938 -8.328125 7.046875 -7.734375 C 6.054688 -6.597656 4.925781 -5.644531 3.65625 -4.875 C 2.894531 -4.414062 2.085938 -4.175781 1.234375 -4.15625 C -0.148438 -4.09375 -0.925781 -4.726562 -1.09375 -6.0625 C -1.164062 -6.601562 -1.144531 -7.140625 -1.03125 -7.671875 C -0.457031 -9.859375 0.675781 -11.523438 2.375 -12.671875 C 4.070312 -13.816406 6.019531 -14.222656 8.21875 -13.890625 C 8.832031 -13.710938 9.28125 -13.878906 9.5625 -14.390625 C 9.675781 -14.585938 9.789062 -14.789062 9.90625 -15 C 10.5 -16.007812 11.082031 -17.023438 11.65625 -18.046875 C 12.71875 -20.003906 13.789062 -21.976562 14.875 -23.96875 C 15.75 -25.519531 16.628906 -27.085938 17.515625 -28.671875 C 17.765625 -29.160156 18.046875 -29.632812 18.359375 -30.09375 C 18.503906 -30.3125 18.679688 -30.441406 18.890625 -30.484375 C 19.097656 -30.523438 19.320312 -30.546875 19.5625 -30.546875 C 19.613281 -30.546875 19.671875 -30.546875 19.734375 -30.546875 C 19.992188 -30.546875 20.195312 -30.484375 20.34375 -30.359375 C 20.5 -30.234375 20.535156 -30.0625 20.453125 -29.84375 C 20.273438 -29.300781 20.070312 -28.785156 19.84375 -28.296875 C 18.65625 -25.921875 17.535156 -23.519531 16.484375 -21.09375 C 15.441406 -18.664062 14.410156 -16.222656 13.390625 -13.765625 C 13.054688 -12.910156 12.71875 -12.054688 12.375 -11.203125 C 11.945312 -10.210938 11.59375 -9.195312 11.3125 -8.15625 C 11.226562 -7.925781 11.1875 -7.695312 11.1875 -7.46875 C 11.1875 -7.238281 11.296875 -7.039062 11.515625 -6.875 C 11.660156 -6.789062 11.804688 -6.773438 11.953125 -6.828125 C 12.109375 -6.890625 12.28125 -6.957031 12.46875 -7.03125 C 12.488281 -7.070312 12.523438 -7.101562 12.578125 -7.125 C 13.804688 -7.832031 14.925781 -8.6875 15.9375 -9.6875 C 16.101562 -9.851562 16.28125 -9.992188 16.46875 -10.109375 C 16.65625 -10.222656 16.882812 -10.242188 17.15625 -10.171875 Z M 7.609375 -11.421875 C 7.753906 -11.648438 7.796875 -11.867188 7.734375 -12.078125 C 7.679688 -12.296875 7.539062 -12.457031 7.3125 -12.5625 C 6.832031 -12.820312 6.320312 -12.851562 5.78125 -12.65625 C 4.445312 -12.257812 3.332031 -11.5 2.4375 -10.375 C 1.539062 -9.257812 1.054688 -8.023438 0.984375 -6.671875 C 1.015625 -6.609375 1.03125 -6.5625 1.03125 -6.53125 C 1.03125 -6.414062 1.03125 -6.300781 1.03125 -6.1875 C 1.144531 -5.5625 1.523438 -5.4375 2.171875 -5.8125 C 2.828125 -6.195312 3.554688 -6.816406 4.359375 -7.671875 C 5.160156 -8.523438 5.878906 -9.332031 6.515625 -10.09375 C 7.160156 -10.863281 7.523438 -11.304688 7.609375 -11.421875 Z M 7.609375 -11.421875 "/></g></g></g><g clip-path="url(#caa6928306)"><path fill="#ad9551" d="M 368.097656 221.304688 L 366.613281 220.628906 L 366.621094 218.367188 L 364.941406 217.738281 L 364.761719 215.574219 L 363.648438 215.203125 L 362.628906 213.546875 L 363.714844 212.867188 L 363.152344 211.945312 L 362.589844 212.046875 L 362.589844 212.039062 C 364.390625 210.085938 364.878906 207.359375 363.601562 205.28125 C 362.511719 203.515625 360.417969 202.683594 358.25 202.925781 C 358.242188 202.914062 358.242188 202.898438 358.234375 202.886719 C 357.367188 200.769531 355.332031 199.394531 353.039062 199.394531 C 349.957031 199.394531 347.441406 201.90625 347.441406 204.992188 C 347.441406 205.605469 347.542969 206.210938 347.734375 206.785156 L 337.429688 209.695312 L 339.296875 210.886719 L 335.257812 217.222656 L 346.675781 224.496094 L 350.710938 218.152344 L 352.648438 219.390625 L 351.167969 210.257812 C 351.464844 210.363281 351.761719 210.445312 352.074219 210.496094 L 352.140625 210.511719 C 352.253906 211.019531 352.453125 211.515625 352.734375 211.980469 C 354.007812 214.042969 356.640625 214.832031 359.175781 214.125 L 358.890625 214.566406 L 359.460938 215.488281 L 360.28125 214.984375 L 365.640625 223.679688 L 367.515625 223.785156 L 368.355469 222.355469 Z M 347.078125 219.21875 C 345.355469 220.3125 342.265625 219.929688 341.578125 219.820312 C 341.492188 219.808594 341.414062 219.753906 341.375 219.675781 C 340.640625 218.304688 340.375 216.710938 340.28125 215.882812 C 340.222656 215.347656 340.261719 214.804688 340.414062 214.296875 C 340.957031 212.460938 342.472656 212.117188 342.472656 212.117188 C 344.800781 211.523438 345.6875 214.203125 345.6875 214.203125 C 347.867188 214.460938 348.375 215.902344 348.375 215.902344 C 349.242188 217.910156 347.078125 219.21875 347.078125 219.21875 Z M 348.34375 209.609375 C 347.757812 209.238281 347.59375 208.472656 347.957031 207.890625 C 348.011719 207.808594 348.070312 207.738281 348.136719 207.679688 C 348.191406 207.769531 348.234375 207.863281 348.289062 207.957031 C 348.539062 208.367188 349.328125 209.226562 349.710938 209.597656 C 349.308594 209.863281 348.773438 209.882812 348.34375 209.609375 Z M 349.441406 207.539062 C 349.402344 207.480469 349.359375 207.414062 349.320312 207.355469 C 349.445312 207.386719 349.566406 207.433594 349.683594 207.507812 C 350.03125 207.722656 350.222656 208.082031 350.253906 208.460938 C 349.996094 208.1875 349.539062 207.679688 349.441406 207.539062 Z M 352.027344 209.28125 C 351.691406 209.199219 351.367188 209.082031 351.054688 208.929688 L 350.949219 208.875 L 350.484375 206.011719 L 348.882812 206.460938 C 348.882812 206.453125 348.882812 206.453125 348.878906 206.445312 C 348.710938 205.976562 348.632812 205.488281 348.632812 204.992188 C 348.632812 202.5625 350.613281 200.582031 353.039062 200.582031 C 354.769531 200.582031 356.34375 201.601562 357.058594 203.179688 C 356.457031 203.355469 355.859375 203.613281 355.289062 203.972656 C 353.253906 205.222656 352.074219 207.28125 352.027344 209.28125 Z M 355.953125 208.292969 C 355.722656 207.539062 356.011719 206.699219 356.707031 206.269531 C 356.898438 206.148438 357.105469 206.078125 357.316406 206.035156 C 357.105469 206.917969 356.632812 207.699219 355.953125 208.292969 Z M 358.566406 209.285156 C 357.964844 209.65625 357.222656 209.617188 356.667969 209.253906 C 357.582031 208.472656 358.230469 207.40625 358.492188 206.242188 C 358.753906 206.386719 358.976562 206.585938 359.140625 206.851562 C 359.660156 207.683594 359.402344 208.769531 358.566406 209.285156 Z M 367.261719 223.648438 C 367.164062 223.707031 367.039062 223.695312 366.984375 223.605469 L 360.75 213.488281 C 360.699219 213.410156 360.738281 213.289062 360.84375 213.222656 C 360.941406 213.164062 361.066406 213.175781 361.121094 213.261719 L 367.355469 223.382812 C 367.40625 223.46875 367.367188 223.582031 367.261719 223.648438 Z M 367.261719 223.648438 " fill-opacity="1" fill-rule="nonzero"/></g></svg>